<svg width="128" height="150" viewBox="0 0 128 150" fill="none" xmlns="http://www.w3.org/2000/svg">
<g clip-path="url(#clip0_4129_6209)">
<path d="M123.863 55.0269H4.02743C2.95967 55.0256 1.93599 54.6009 1.18097 53.8459C0.425944 53.0909 0.00123292 52.0672 0 50.9994V4.02743C0.00123292 2.95966 0.425944 1.93599 1.18097 1.18097C1.93599 0.425944 2.95967 0.00123292 4.02743 0H123.863C124.931 0.00123292 125.954 0.425944 126.709 1.18097C127.464 1.93599 127.889 2.95966 127.89 4.02743V50.9994C127.889 52.0672 127.464 53.0909 126.709 53.8459C125.954 54.6009 124.931 55.0256 123.863 55.0269Z" fill="#F2F2F2"/>
<path d="M95.9118 52.4583H23.0466C17.6168 52.4522 12.4111 50.2925 8.57168 46.4531C4.73223 42.6136 2.57253 37.4079 2.56641 31.9781V23.0512C2.57253 17.6213 4.73222 12.4157 8.57167 8.57617C12.4111 4.73669 17.6168 2.57696 23.0466 2.5708H104.839C110.269 2.57696 115.474 4.73669 119.314 8.57617C123.153 12.4157 125.313 17.6213 125.319 23.0512C125.31 30.8477 122.209 38.3224 116.696 43.8354C111.183 49.3484 103.708 52.4495 95.9118 52.4583Z" fill="white"/>
<path d="M77.1175 16.0173H28.9527C28.6773 16.0173 28.4131 15.9079 28.2183 15.7131C28.0235 15.5183 27.9141 15.2541 27.9141 14.9786C27.9141 14.7031 28.0235 14.439 28.2183 14.2442C28.4131 14.0494 28.6773 13.9399 28.9527 13.9399H77.1175C77.3929 13.9399 77.6571 14.0494 77.8519 14.2442C78.0467 14.439 78.1562 14.7031 78.1562 14.9786C78.1562 15.2541 78.0467 15.5183 77.8519 15.7131C77.6571 15.9079 77.3929 16.0173 77.1175 16.0173Z" fill="#E6E6E6"/>
<path d="M101.499 27.0991H28.9527C28.6773 27.0991 28.4131 26.9896 28.2183 26.7949C28.0235 26.6001 27.9141 26.3359 27.9141 26.0604C27.9141 25.7849 28.0235 25.5207 28.2183 25.3259C28.4131 25.1312 28.6773 25.0217 28.9527 25.0217H101.499C101.775 25.0217 102.039 25.1312 102.234 25.3259C102.429 25.5207 102.538 25.7849 102.538 26.0604C102.538 26.3359 102.429 26.6001 102.234 26.7949C102.039 26.9896 101.775 27.0991 101.499 27.0991Z" fill="#E6E6E6"/>
<path d="M101.499 38.1811H28.9527C28.6773 38.1811 28.4131 38.0717 28.2183 37.8769C28.0235 37.6821 27.9141 37.4179 27.9141 37.1424C27.9141 36.867 28.0235 36.6028 28.2183 36.408C28.4131 36.2132 28.6773 36.1038 28.9527 36.1038H101.499C101.775 36.1038 102.039 36.2132 102.234 36.408C102.429 36.6028 102.538 36.867 102.538 37.1424C102.538 37.4179 102.429 37.6821 102.234 37.8769C102.039 38.0717 101.775 38.1811 101.499 38.1811Z" fill="#E6E6E6"/>
<path d="M101.499 38.1811H28.9527C28.6773 38.1811 28.4131 38.0717 28.2183 37.8769C28.0235 37.6821 27.9141 37.4179 27.9141 37.1424C27.9141 36.867 28.0235 36.6028 28.2183 36.408C28.4131 36.2132 28.6773 36.1038 28.9527 36.1038H101.499C101.775 36.1038 102.039 36.2132 102.234 36.408C102.429 36.6028 102.538 36.867 102.538 37.1424C102.538 37.4179 102.429 37.6821 102.234 37.8769C102.039 38.0717 101.775 38.1811 101.499 38.1811Z" fill="#E6E6E6"/>
<path d="M72.0332 28.3712C72.0448 28.6841 72.1248 28.9906 72.2676 29.2692C72.4105 29.5478 72.6126 29.7917 72.8599 29.9838C73.1072 30.1758 73.3936 30.3112 73.6989 30.3806C74.0042 30.4499 74.321 30.4515 74.6269 30.3852L78.588 36.8834L80.2739 33.306L76.2539 27.6837C76.1084 27.177 75.7822 26.7414 75.3369 26.4592C74.8917 26.1771 74.3584 26.068 73.8382 26.1528C73.3179 26.2375 72.8469 26.5102 72.5142 26.919C72.1815 27.3279 72.0104 27.8446 72.0332 28.3712Z" fill="#FFB6B6"/>
<path d="M101.76 46.9945L88.1089 39.59L83.8031 35.5504C83.8031 35.5504 81.9313 35.0492 82.6203 34.4406C83.3092 33.832 81.3459 33.245 81.3459 33.245L79.0345 31.0764L75.75 33.4004L76.7006 34.8739C76.7006 34.8739 76.6351 37.3132 77.9714 36.8439C79.3077 36.3746 78.9738 38.3977 78.9738 38.3977L86.9499 50.7617L101.76 46.9945Z" fill="#3F3D56"/>
<path d="M61.4624 40.0183C68.8263 40.0183 74.7959 34.0487 74.7959 26.6848C74.7959 19.3209 68.8263 13.3513 61.4624 13.3513C54.0985 13.3513 48.1289 19.3209 48.1289 26.6848C48.1289 34.0487 54.0985 40.0183 61.4624 40.0183Z" fill="#01589A"/>
<path d="M101.807 144.113H99.0342L97.7148 133.419H101.807V144.113Z" fill="#FFB6B6"/>
<path d="M103.265 148.916H101.277L100.922 147.039L100.013 148.916H94.7401C94.4874 148.916 94.2412 148.836 94.0376 148.686C93.834 148.536 93.6836 148.325 93.6084 148.084C93.5332 147.843 93.5371 147.583 93.6195 147.345C93.7019 147.106 93.8586 146.899 94.0666 146.756L98.2775 143.847V141.95L102.707 142.214L103.265 148.916Z" fill="#2F2E41"/>
<path d="M79.6269 144.113H76.8545L75.5352 133.419H79.6269V144.113Z" fill="#FFB6B6"/>
<path d="M81.0933 148.916H79.1052L78.7503 147.039L77.8414 148.916H72.5682C72.3155 148.916 72.0693 148.836 71.8657 148.686C71.6621 148.536 71.5117 148.325 71.4365 148.084C71.3613 147.843 71.3652 147.583 71.4476 147.345C71.53 147.106 71.6867 146.899 71.8947 146.756L76.1057 143.847V141.95L80.5349 142.214L81.0933 148.916Z" fill="#2F2E41"/>
<path d="M98.8602 63.2393H84.8672V79.1697H98.8602V63.2393Z" fill="#FFB6B6"/>
<path d="M85.1904 71.0964L82.8224 73.895L78.7321 82.5061L68.4257 107.028L66.2461 112.214L68.0063 121.382C68.0063 121.382 68.2912 127.841 68.2912 128.898C68.2912 131.051 70.0918 132.244 70.0918 132.244L71.4127 139.124L84.2217 138.586C84.2217 138.586 83.7748 131.002 81.092 129.089C78.4092 127.176 77.176 117.206 77.176 117.206L75.7183 112.783L89.9265 95.9406L90.0182 101.828L90.0626 104.677C90.0626 104.677 87.9819 123.211 90.4073 126.808C92.8328 130.405 90.4568 129.982 90.4568 129.982L90.5723 137.402L105.749 137.509L102.401 116.148C102.401 116.148 100.701 114.805 101.611 113.456C102.52 112.107 100.729 110.454 100.729 110.454L101.532 93.7777C101.532 93.7777 100.643 90.8972 101.689 90.5228C102.735 90.1484 101.827 87.6714 101.827 87.6714L101.982 84.4436L98.8605 74.4332L85.1904 71.0964Z" fill="#2F2E41"/>
<path d="M99.0728 63.2391L100.58 58.7183L101.656 57.2114L102.087 52.9058C102.087 41.2809 99.4937 43.2167 99.4937 43.2167L97.9964 39.1281L91.1075 38.9128L86.6944 43.1107L83.0347 44.4024L81.6016 51.8489L84.2187 59.7947L84.8645 64.1002C83.6325 66.3746 83.7368 65.2988 84.7569 67.0064L96.92 70.3432C101.226 71.8502 101.226 67.9752 100.362 67.0064C99.4989 66.0377 99.0728 63.2391 99.0728 63.2391Z" fill="#3F3D56"/>
<path d="M93.6636 37.468C97.1906 37.468 100.05 34.6088 100.05 31.0818C100.05 27.5548 97.1906 24.6956 93.6636 24.6956C90.1366 24.6956 87.2773 27.5548 87.2773 31.0818C87.2773 34.6088 90.1366 37.468 93.6636 37.468Z" fill="#FFB6B6"/>
<path d="M102.192 39.606C102.252 39.7075 102.288 39.8213 102.298 39.9389C102.308 40.0565 102.292 40.1748 102.25 40.2851C102.208 40.3954 102.141 40.4948 102.056 40.5758C101.97 40.6569 101.867 40.7176 101.755 40.7534C100.898 41.0376 100.37 41.8664 99.7546 42.5294C99.1411 43.1903 98.153 43.7393 97.3694 43.2894C96.5879 42.8416 96.5341 41.6985 95.8797 41.0785C95.2424 40.4757 94.1833 40.5489 93.4341 41.0074L93.4117 41.0212C93.2824 41.1055 93.1312 41.1501 92.9768 41.1494C92.8225 41.1487 92.6717 41.1027 92.5431 41.0173C92.4146 40.9318 92.3139 40.8105 92.2536 40.6684C92.1932 40.5263 92.1759 40.3697 92.2036 40.2178C92.4661 38.8218 92.7284 37.4259 92.9906 36.0302C92.3016 37.6901 91.3012 39.2027 90.0435 40.4865C89.6971 40.8863 89.258 41.1952 88.7647 41.3863C88.317 41.5284 87.8821 41.0656 87.4473 41.1495C88.528 40.2044 92.1618 34.1465 91.5117 30.0972C90.7474 30.1833 89.9832 30.2694 89.219 30.3555C89.1363 29.9939 88.9595 29.6604 88.7066 29.3889C88.7375 29.7409 88.6928 30.0955 88.5753 30.4287C88.2567 30.4653 87.9359 30.4998 87.6173 30.5364C87.1739 30.5859 86.6916 30.6289 86.3106 30.3964C85.6755 30.0089 85.6562 29.0919 85.837 28.3685C86.3666 26.2653 87.9725 24.5065 89.938 23.5851C91.9035 22.6658 92.4847 24.7131 94.5557 24.0587C98.6459 22.767 101.78 24.9758 102.885 29.0746C103.813 32.5126 103.139 36.1615 102.192 39.606Z" fill="#2F2E41"/>
<path d="M119.871 149.055H112.052L112.018 148.994C111.918 148.813 111.821 148.62 111.731 148.423C110.926 146.698 110.585 144.726 110.285 142.986L110.059 141.675C110.031 141.516 110.052 141.352 110.118 141.205C110.184 141.058 110.292 140.934 110.429 140.849C110.566 140.764 110.725 140.722 110.886 140.728C111.048 140.734 111.203 140.787 111.333 140.882C112.522 141.747 113.711 142.611 114.9 143.474C115.35 143.802 115.865 144.181 116.357 144.591C116.405 144.36 116.454 144.128 116.504 143.9C116.538 143.743 116.619 143.599 116.735 143.487C116.852 143.376 116.999 143.301 117.158 143.274C117.317 143.246 117.48 143.267 117.628 143.333C117.775 143.399 117.899 143.507 117.984 143.644L118.899 145.114C119.566 146.188 120.155 147.245 120.035 148.386C120.036 148.4 120.035 148.414 120.032 148.428C120.008 148.615 119.964 148.799 119.899 148.977L119.871 149.055Z" fill="#F0F0F0"/>
<path d="M127.72 149.224L53.412 149.297C53.3378 149.296 53.2668 149.267 53.2145 149.214C53.1622 149.161 53.1328 149.09 53.1328 149.016C53.1328 148.942 53.1622 148.871 53.2145 148.818C53.2668 148.766 53.3378 148.736 53.412 148.735L127.72 148.663C127.795 148.663 127.866 148.693 127.918 148.746C127.97 148.798 128 148.869 128 148.944C128 149.018 127.97 149.089 127.918 149.142C127.866 149.194 127.795 149.224 127.72 149.224Z" fill="#CACACA"/>
<path d="M60.2527 44.6309L52.079 37.7283C51.7997 37.4918 51.6255 37.1542 51.5947 36.7895C51.564 36.4247 51.6792 36.0627 51.915 35.7828L53.4194 34.0014C53.6559 33.722 53.9935 33.5478 54.3582 33.5171C54.723 33.4863 55.085 33.6015 55.3649 33.8374L63.5385 40.74C63.8179 40.9764 63.9921 41.3141 64.0228 41.6788C64.0536 42.0435 63.9384 42.4056 63.7025 42.6855L62.1982 44.4669C61.9617 44.7462 61.6241 44.9204 61.2593 44.9512C60.8946 44.9819 60.5326 44.8667 60.2527 44.6309Z" fill="#3F3D56"/>
<path d="M52.5112 35.9263C52.3841 36.0772 52.322 36.2723 52.3386 36.4688C52.3551 36.6654 52.449 36.8473 52.5995 36.9747L60.7732 43.8773C60.924 44.0044 61.1191 44.0665 61.3156 44.0499C61.5122 44.0333 61.6941 43.9395 61.8216 43.7889L63.3259 42.0075C63.453 41.8567 63.5151 41.6616 63.4985 41.4651C63.4819 41.2685 63.3881 41.0866 63.2375 40.9591L55.0639 34.0566C54.9131 33.9295 54.718 33.8674 54.5215 33.884C54.3249 33.9006 54.143 33.9944 54.0155 34.1449L52.5112 35.9263Z" fill="white"/>
<path d="M57.3073 38.61C57.2789 38.6497 57.2417 38.6823 57.1986 38.7051C57.1555 38.7279 57.1076 38.7403 57.0588 38.7415L55.7746 38.7709C55.7333 38.7719 55.6923 38.7647 55.6538 38.7498C55.6153 38.7349 55.5802 38.7125 55.5503 38.684C55.5205 38.6555 55.4965 38.6214 55.4799 38.5837C55.4632 38.5459 55.4542 38.5052 55.4532 38.464C55.4523 38.4227 55.4594 38.3817 55.4744 38.3432C55.4893 38.3047 55.5116 38.2696 55.5401 38.2397C55.5686 38.2099 55.6027 38.1859 55.6405 38.1693C55.6783 38.1526 55.7189 38.1435 55.7602 38.1426L56.6003 38.1233L55.7729 35.9401C55.7436 35.8622 55.7464 35.7758 55.7807 35.7C55.8149 35.6242 55.8779 35.565 55.9557 35.5355C56.0335 35.506 56.1199 35.5086 56.1958 35.5427C56.2717 35.5768 56.331 35.6396 56.3607 35.7173L57.3455 38.3159C57.3633 38.3629 57.3696 38.4135 57.3638 38.4634C57.358 38.5134 57.3404 38.5612 57.3123 38.6029L57.3073 38.61Z" fill="#01589A"/>
<path d="M57.472 39.1587C57.7818 39.2042 58.0778 39.3171 58.3392 39.4893C58.6006 39.6616 58.8211 39.8891 58.9851 40.1558C59.1491 40.4225 59.2526 40.7219 59.2883 41.0329C59.3241 41.344 59.2912 41.6591 59.192 41.956L65.221 46.6002L61.4815 47.8871L56.3296 43.2796C55.8418 43.0799 55.4442 42.7082 55.2121 42.2349C54.98 41.7616 54.9296 41.2197 55.0704 40.7117C55.2113 40.2038 55.5335 39.7651 55.9761 39.4789C56.4188 39.1927 56.951 39.0787 57.472 39.1587Z" fill="#FFB6B6"/>
<path d="M88.8628 41.4548L73.4267 50.9456C73.4267 50.9456 67.203 48.6428 68.4193 47.5768C69.6356 46.5108 65.7635 45.7901 65.7635 45.7901L61.4861 42.9123L59.0039 45.797C59.0039 45.797 59.4562 50.4826 60.2257 49.6712C60.9952 48.8599 62.1455 51.0762 62.1455 51.0762C62.1455 51.0762 62.4854 53.551 64.676 52.9282C66.8666 52.3054 72.7445 58.8332 72.7445 58.8332L91.7418 51.748L88.8628 41.4548Z" fill="#3F3D56"/>
<path d="M60.9953 32.0336C60.8164 32.0336 60.6399 31.9919 60.4798 31.9119C60.3198 31.8318 60.1806 31.7156 60.0732 31.5724L57.2461 27.8029C57.1553 27.6818 57.0892 27.544 57.0517 27.3974C57.0141 27.2507 57.0058 27.0981 57.0272 26.9483C57.0486 26.7984 57.0993 26.6543 57.1765 26.524C57.2536 26.3938 57.3556 26.28 57.4767 26.1892C57.7213 26.0057 58.0287 25.927 58.3313 25.9702C58.4812 25.9916 58.6254 26.0424 58.7556 26.1195C58.8859 26.1966 58.9996 26.2986 59.0905 26.4197L60.9401 28.8857L65.6905 21.7601C65.8601 21.5058 66.1237 21.3292 66.4235 21.2692C66.7233 21.2093 67.0346 21.2708 67.289 21.4404C67.5434 21.61 67.72 21.8737 67.7799 22.1735C67.8399 22.4733 67.7783 22.7846 67.6087 23.039L61.9545 31.5203C61.8522 31.6737 61.7147 31.8003 61.5534 31.8895C61.3921 31.9788 61.2117 32.0281 61.0274 32.0332C61.0167 32.0334 61.006 32.0336 60.9953 32.0336Z" fill="white"/>
</g>
<defs>
<clipPath id="clip0_4129_6209">
<rect width="128" height="149.297" fill="white"/>
</clipPath>
</defs>
</svg>
