<svg width="807" height="231" viewBox="0 0 807 231" fill="none" xmlns="http://www.w3.org/2000/svg">
<path d="M221.825 89.5674H160.09V218.268C163.229 218.895 181.628 215.216 190.434 213.297C216.174 203.462 222.086 174.844 221.825 161.765V139.792V89.5674Z" fill="#28ACE2"/>
<path d="M62.2574 12.6611H122.945V53.2069H66.1812C47.7655 52.7884 42.8129 69.9484 42.6385 78.5807V93.7527V155.487C43.4755 164.485 48.3934 171.792 50.7476 174.321C55.1423 177.042 61.4726 178.419 64.0885 178.768H78.4757H136.809C139.321 178.768 144.657 177.199 147.011 176.414C149.313 176.414 152.679 172.752 154.074 170.92V217.744H55.7178C47.5563 217.535 35.0525 213.821 29.8208 211.989C18.5203 208.641 10.289 196.294 7.58598 190.539C3.60988 185.935 0.871952 166.648 0 157.58V78.5807L1.56951 63.1472C1.77878 44.5223 12.9921 30.9721 18.5726 26.5252C26.1063 17.7359 50.8348 13.6203 62.2574 12.6611Z" fill="#01589A"/>
<rect x="160.09" y="12.6611" width="61.7342" height="54.4098" rx="14.6488" fill="#28ACE2"/>
<path d="M325.303 53.8542C311.646 53.8542 301.136 58.6639 293.773 68.2834C286.528 77.784 282.906 90.1349 282.906 105.336C282.906 120.418 287.182 133.185 295.732 143.636C304.283 154.086 315.387 159.312 329.044 159.312C347.214 159.312 359.98 150.227 367.343 132.057L379.457 134.729C379.457 135.798 377.913 140.667 374.825 149.336C371.738 157.887 369.837 162.103 369.125 161.984C356.774 168.753 342.226 172.138 325.481 172.138C304.817 172.138 287.894 166.378 274.712 154.858C261.648 143.339 255.117 128.138 255.117 109.255C255.117 87.8785 261.886 71.2523 275.424 59.3765C289.082 47.3819 306.539 41.3846 327.797 41.3846C337.179 41.3846 347.333 42.6909 358.258 45.3036C363.84 46.3724 368.887 47.2631 373.4 47.9757C374.706 50.7071 375.36 55.3981 375.36 62.0486C375.36 68.699 375.003 75.4683 374.291 82.3563L361.465 80.9312C360.634 73.9244 358.971 68.5803 356.477 64.8988C351.37 57.5357 340.979 53.8542 325.303 53.8542ZM443.333 170.356L415.365 170C408.953 170 401.233 170.178 392.208 170.534L390.07 160.915C395.77 160.796 399.511 160.202 401.293 159.134C403.193 158.065 404.143 156.521 404.143 154.502L404.855 59.0202C404.855 56.8826 404.024 55.2793 402.361 54.2105C400.818 53.1417 397.67 52.6073 392.92 52.6073L390.604 42.9878C404.855 43.3441 414.594 43.5222 419.819 43.5222C425.163 43.5222 432.348 43.3441 441.374 42.9878L443.511 52.6073C437.811 52.726 434.011 53.3198 432.11 54.3886C430.329 55.4575 429.438 57.0013 429.438 59.0202V149.692C429.438 155.987 432.348 159.134 438.167 159.134H454.912C470.944 159.134 481.87 150.583 487.689 133.482L497.309 135.441C497.309 137.46 495.587 143.754 492.143 154.324C488.699 164.775 486.146 170 484.483 170L443.333 170.356ZM538.964 92.8664V156.462C538.964 158.362 539.617 159.787 540.923 160.737C542.348 161.568 545.199 161.984 549.474 161.984L551.433 170.534C538.964 170.178 530.294 170 525.425 170C520.675 170 514.321 170.178 506.365 170.534L504.583 161.984C509.452 161.865 512.718 161.39 514.381 160.559C516.043 159.609 516.875 158.243 516.875 156.462V113.708C516.875 110.977 516.162 108.899 514.737 107.474C513.312 105.93 510.462 105.158 506.186 105.158H503.871L501.377 97.8542C512.065 95.3603 522.635 92.332 533.085 88.7692C535.579 88.7692 537.182 89.0661 537.895 89.6599C538.608 90.1349 538.964 91.2038 538.964 92.8664ZM527.563 71.8461C524.357 71.8461 521.566 70.7773 519.191 68.6397C516.815 66.502 515.628 63.7706 515.628 60.4453C515.628 57.1201 516.875 54.2105 519.369 51.7166C521.981 49.2226 524.891 47.9757 528.097 47.9757C531.304 47.9757 534.095 49.0445 536.47 51.1821C538.845 53.3198 540.033 56.0512 540.033 59.3765C540.033 62.7017 538.726 65.6113 536.114 68.1052C533.62 70.5992 530.769 71.8461 527.563 71.8461ZM632.012 127.96H583.558C583.558 134.847 584.864 141.32 587.477 147.377C589.021 150.939 591.515 153.849 594.959 156.105C598.522 158.362 602.559 159.49 607.072 159.49C611.585 159.49 615.742 158.599 619.542 156.818C623.461 154.918 626.074 153.314 627.38 152.008C628.805 150.583 629.815 150.227 630.408 150.939L633.259 154.858C629.221 159.846 624.173 164.003 618.117 167.328C612.179 170.534 606.36 172.138 600.659 172.138C587.833 172.138 577.917 168.516 570.91 161.271C563.904 153.908 560.4 144.051 560.4 131.7C560.4 119.231 564.319 109.196 572.157 101.595C579.995 93.9946 588.962 90.1943 599.056 90.1943C609.151 90.1943 617.404 93.1039 623.817 98.9231C630.349 104.742 633.615 113.53 633.615 125.287C633.615 127.069 633.08 127.96 632.012 127.96ZM613.129 117.271C613.129 106.464 608.676 101.061 599.769 101.061C595.375 101.061 591.812 102.723 589.08 106.049C586.349 109.374 584.746 113.115 584.271 117.271H613.129ZM675.938 93.4008C676.057 94.2321 676.116 94.9446 676.116 95.5384C676.116 96.1322 676.175 97.0229 676.294 98.2105C676.413 99.3981 676.472 100.289 676.472 100.883C685.498 96.1322 692.089 93.1633 696.246 91.9757C700.402 90.7881 703.965 90.1943 706.934 90.1943C713.822 90.1943 719.403 92.6882 723.679 97.6761C727.954 102.664 730.092 109.908 730.092 119.409V156.462C730.092 157.53 730.151 158.421 730.27 159.134C730.507 159.727 731.22 160.381 732.407 161.093C733.595 161.687 735.317 161.984 737.573 161.984L739.533 170.534C727.063 170.178 719.225 170 716.019 170C712.812 170 707.231 170.178 699.274 170.534L697.492 161.984C701.53 161.865 704.262 161.39 705.687 160.559C707.112 159.609 707.884 158.243 708.003 156.462V124.753C708.003 118.459 706.934 113.827 704.796 110.858C702.777 107.771 699.274 106.227 694.286 106.227C689.417 106.227 683.776 107.592 677.363 110.324V156.462C677.363 157.53 677.422 158.421 677.541 159.134C677.779 159.727 678.491 160.381 679.679 161.093C680.866 161.687 682.588 161.984 684.845 161.984L686.804 170.534C674.335 170.178 666.497 170 663.29 170C660.084 170 654.502 170.178 646.545 170.534L644.764 161.984C648.801 161.865 651.533 161.39 652.958 160.559C654.383 159.609 655.155 158.243 655.274 156.462V113.708C655.274 110.858 654.621 108.899 653.314 107.83C652.008 106.642 650.345 106.049 648.326 106.049C646.426 106.049 645.001 106.108 644.051 106.227L641.557 98.9231C648.92 97.1417 658.896 93.7571 671.484 88.7692C673.028 88.7692 673.978 89.1255 674.335 89.838C674.81 90.4318 675.166 90.9662 675.403 91.4413C675.641 91.9163 675.819 92.5695 675.938 93.4008ZM777.838 144.17C777.838 148.92 778.729 152.661 780.51 155.393C782.41 158.124 784.845 159.49 787.814 159.49C790.783 159.49 794.286 157.946 798.324 154.858C799.274 154.146 799.987 154.086 800.462 154.68L804.024 159.49C800.937 162.459 798.502 164.656 796.721 166.081C791.614 170 785.557 171.96 778.551 171.96C771.544 171.96 765.903 169.644 761.628 165.012C757.471 160.262 755.393 154.977 755.393 149.158V104.623H746.486L745.595 98.0324C752.127 95.8947 757.055 93.0445 760.381 89.4818C763.825 85.8002 767.031 80.9905 770 75.0526H774.275C775.463 75.0526 776.235 75.2901 776.591 75.7652C776.947 76.2402 777.126 77.0715 777.126 78.2591L777.838 93.4008H800.462C800.699 94.4696 800.818 95.9541 800.818 97.8542C800.818 99.7544 800.046 102.011 798.502 104.623H778.016L777.838 144.17Z" fill="#01589A"/>
</svg>
