<svg width="3086" height="883" viewBox="0 0 3086 883" fill="none" xmlns="http://www.w3.org/2000/svg">
<path d="M848 342.364H612V834.364C624 836.764 694.333 822.698 728 815.364C826.4 777.764 849 668.364 848 618.364V534.364V342.364Z" fill="white"/>
<path d="M238 48.364H470V203.364H253C182.6 201.764 163.667 267.364 163 300.364V358.364V594.364C166.2 628.764 185 656.697 194 666.364C210.8 676.764 235 682.031 245 683.364H300H523C532.6 683.364 553 677.364 562 674.364C570.8 674.364 583.667 660.364 589 653.364V832.364H213C181.8 831.564 134 817.364 114 810.364C70.8 797.564 39.3333 750.364 29 728.364C13.8 710.764 3.33333 637.031 0 602.364V300.364L6 241.364C6.8 170.164 49.6667 118.364 71 101.364C99.8 67.764 194.333 52.0307 238 48.364Z" fill="white"/>
<rect x="612" y="48.364" width="236" height="208" rx="56" fill="white"/>
<path d="M1243.58 206.993C1191.37 206.993 1151.19 225.38 1123.05 262.154C1095.35 298.473 1081.51 345.689 1081.51 403.8C1081.51 461.457 1097.85 510.262 1130.54 550.213C1163.22 590.165 1205.67 610.14 1257.88 610.14C1327.34 610.14 1376.15 575.41 1404.3 505.949L1450.6 516.164C1450.6 520.25 1444.7 538.863 1432.9 572.005C1421.09 604.693 1413.83 620.809 1411.11 620.355C1363.89 646.233 1308.28 659.172 1244.26 659.172C1165.27 659.172 1100.57 637.153 1050.18 593.116C1000.24 549.078 975.271 490.967 975.271 418.782C975.271 337.063 1001.15 273.504 1052.9 228.104C1105.11 182.251 1171.85 159.324 1253.12 159.324C1288.98 159.324 1327.8 164.318 1369.57 174.306C1390.9 178.392 1410.2 181.797 1427.45 184.521C1432.44 194.962 1434.94 212.895 1434.94 238.319C1434.94 263.743 1433.58 289.62 1430.85 315.952L1381.82 310.504C1378.65 283.718 1372.29 263.289 1362.76 249.215C1343.23 221.067 1303.51 206.993 1243.58 206.993ZM1694.79 652.362L1587.88 651C1563.36 651 1533.85 651.681 1499.35 653.043L1491.18 616.269C1512.97 615.815 1527.27 613.545 1534.08 609.459C1541.34 605.374 1544.97 599.472 1544.97 591.754L1547.7 226.742C1547.7 218.57 1544.52 212.441 1538.16 208.355C1532.26 204.269 1520.23 202.226 1502.07 202.226L1493.22 165.453C1547.7 166.815 1584.93 167.496 1604.9 167.496C1625.33 167.496 1652.8 166.815 1687.3 165.453L1695.47 202.226C1673.68 202.68 1659.15 204.95 1651.89 209.036C1645.08 213.122 1641.67 219.024 1641.67 226.742V573.367C1641.67 597.429 1652.8 609.459 1675.04 609.459H1739.06C1800.35 609.459 1842.11 576.772 1864.36 511.397L1901.13 518.888C1901.13 526.606 1894.55 550.667 1881.38 591.073C1868.22 631.024 1858.46 651 1852.1 651L1694.79 652.362ZM2060.37 356.131V599.245C2060.37 606.509 2062.87 611.956 2067.86 615.588C2073.31 618.766 2084.21 620.355 2100.55 620.355L2108.04 653.043C2060.37 651.681 2027.23 651 2008.62 651C1990.46 651 1966.17 651.681 1935.75 653.043L1928.94 620.355C1947.56 619.901 1960.04 618.085 1966.4 614.907C1972.75 611.275 1975.93 606.055 1975.93 599.245V435.807C1975.93 425.365 1973.21 417.42 1967.76 411.972C1962.31 406.07 1951.41 403.119 1935.07 403.119H1926.22L1916.68 375.198C1957.54 365.664 1997.95 354.088 2037.9 340.468C2047.43 340.468 2053.56 341.603 2056.29 343.873C2059.01 345.689 2060.37 349.775 2060.37 356.131ZM2016.79 275.774C2004.53 275.774 1993.86 271.688 1984.78 263.516C1975.7 255.344 1971.16 244.902 1971.16 232.19C1971.16 219.478 1975.93 208.355 1985.46 198.821C1995.45 189.288 2006.57 184.521 2018.83 184.521C2031.09 184.521 2041.76 188.607 2050.84 196.778C2059.92 204.95 2064.46 215.392 2064.46 228.104C2064.46 240.816 2059.46 251.939 2049.48 261.473C2039.94 271.007 2029.05 275.774 2016.79 275.774ZM2416.08 490.286H2230.85C2230.85 516.618 2235.84 541.36 2245.83 564.514C2251.73 578.134 2261.27 589.257 2274.43 597.883C2288.05 606.509 2303.49 610.821 2320.74 610.821C2337.99 610.821 2353.88 607.417 2368.41 600.607C2383.39 593.343 2393.38 587.214 2398.37 582.22C2403.82 576.772 2407.68 575.41 2409.95 578.134L2420.85 593.116C2405.41 612.183 2386.12 628.073 2362.96 640.785C2340.26 653.043 2318.02 659.172 2296.22 659.172C2247.19 659.172 2209.28 645.325 2182.5 617.631C2155.71 589.484 2142.32 551.802 2142.32 504.587C2142.32 456.917 2157.3 418.555 2187.27 389.499C2217.23 360.444 2251.51 345.916 2290.1 345.916C2328.69 345.916 2360.24 357.039 2384.75 379.284C2409.72 401.53 2422.21 435.126 2422.21 480.071C2422.21 486.881 2420.17 490.286 2416.08 490.286ZM2343.89 449.426C2343.89 408.113 2326.87 387.456 2292.82 387.456C2276.02 387.456 2262.4 393.812 2251.96 406.524C2241.52 419.236 2235.39 433.537 2233.57 449.426H2343.89ZM2584 358.174C2584.46 361.351 2584.68 364.075 2584.68 366.345C2584.68 368.615 2584.91 372.02 2585.36 376.56C2585.82 381.1 2586.05 384.505 2586.05 386.775C2620.55 368.615 2645.75 357.266 2661.64 352.726C2677.53 348.186 2691.15 345.916 2702.49 345.916C2728.83 345.916 2750.16 355.45 2766.51 374.517C2782.85 393.585 2791.02 421.279 2791.02 457.598V599.245C2791.02 603.331 2791.25 606.736 2791.7 609.459C2792.61 611.729 2795.34 614.226 2799.88 616.95C2804.42 619.22 2811 620.355 2819.63 620.355L2827.12 653.043C2779.45 651.681 2749.48 651 2737.23 651C2724.97 651 2703.63 651.681 2673.21 653.043L2666.4 620.355C2681.84 619.901 2692.28 618.085 2697.73 614.907C2703.18 611.275 2706.13 606.055 2706.58 599.245V478.028C2706.58 453.966 2702.49 436.261 2694.32 424.911C2686.61 413.107 2673.21 407.205 2654.14 407.205C2635.53 407.205 2613.97 412.426 2589.45 422.868V599.245C2589.45 603.331 2589.68 606.736 2590.13 609.459C2591.04 611.729 2593.76 614.226 2598.3 616.95C2602.84 619.22 2609.43 620.355 2618.05 620.355L2625.54 653.043C2577.87 651.681 2547.91 651 2535.65 651C2523.39 651 2502.06 651.681 2471.64 653.043L2464.83 620.355C2480.26 619.901 2490.71 618.085 2496.15 614.907C2501.6 611.275 2504.55 606.055 2505.01 599.245V435.807C2505.01 424.911 2502.51 417.42 2497.52 413.334C2492.52 408.794 2486.17 406.524 2478.45 406.524C2471.18 406.524 2465.74 406.751 2462.1 407.205L2452.57 379.284C2480.72 372.474 2518.85 359.536 2566.98 340.468C2572.88 340.468 2576.51 341.83 2577.87 344.554C2579.69 346.824 2581.05 348.867 2581.96 350.683C2582.87 352.499 2583.55 354.996 2584 358.174ZM2973.55 552.256C2973.55 570.416 2976.96 584.717 2983.77 595.159C2991.03 605.601 3000.34 610.821 3011.69 610.821C3023.04 610.821 3036.43 604.92 3051.86 593.116C3055.5 590.392 3058.22 590.165 3060.04 592.435L3073.66 610.821C3061.85 622.171 3052.55 630.57 3045.74 636.018C3026.21 651 3003.06 658.491 2976.27 658.491C2949.49 658.491 2927.92 649.638 2911.58 631.932C2895.69 613.772 2887.75 593.57 2887.75 571.324V401.076H2853.7L2850.29 375.879C2875.26 367.707 2894.1 356.812 2906.81 343.192C2919.98 329.118 2932.24 310.731 2943.59 288.031H2959.93C2964.47 288.031 2967.42 288.939 2968.78 290.755C2970.15 292.571 2970.83 295.749 2970.83 300.289L2973.55 358.174H3060.04C3060.94 362.259 3061.4 367.934 3061.4 375.198C3061.4 382.462 3058.45 391.088 3052.55 401.076H2974.23L2973.55 552.256Z" fill="white"/>
</svg>
