<svg width="2107" height="603" viewBox="0 0 2107 603" fill="none" xmlns="http://www.w3.org/2000/svg">
<path d="M578.897 233.824H417.789V569.693C425.981 571.331 473.994 561.729 496.977 556.723C564.151 531.054 579.579 456.371 578.897 422.238V364.895V233.824Z" fill="white"/>
<path d="M162.473 33.1213H320.851V138.934H172.713C124.654 137.842 111.729 182.624 111.274 205.152V244.746V405.854C113.458 429.338 126.292 448.407 132.436 455.006C143.905 462.106 160.425 465.701 167.252 466.611H204.798H357.032C363.585 466.611 377.512 462.515 383.656 460.467C389.663 460.467 398.447 450.91 402.087 446.131V568.328H145.407C124.108 567.782 91.4766 558.088 77.8234 553.309C48.3324 544.571 26.8513 512.35 19.7972 497.331C9.42072 485.316 2.27554 434.981 0 411.316V205.152L4.09597 164.875C4.6421 116.269 33.9055 80.9076 48.4689 69.3024C68.1296 46.365 132.664 35.6244 162.473 33.1213Z" fill="white"/>
<rect x="417.789" y="33.1211" width="161.108" height="141.994" rx="38.229" fill="white"/>
<path d="M848.945 140.894C813.304 140.894 785.875 153.446 766.66 178.55C747.755 203.344 738.302 235.576 738.302 275.246C738.302 314.607 749.459 347.923 771.774 375.197C794.088 402.47 823.066 416.107 858.708 416.107C906.126 416.107 939.443 392.398 958.658 344.979L990.27 351.952C990.27 354.742 986.241 367.449 978.183 390.073C970.125 412.388 965.167 423.39 963.307 423.08C931.075 440.746 893.109 449.579 849.41 449.579C795.483 449.579 751.319 434.547 716.917 404.485C682.825 374.422 665.78 334.752 665.78 285.474C665.78 229.687 683.445 186.298 718.777 155.305C754.418 124.003 799.977 108.352 855.453 108.352C879.937 108.352 906.436 111.761 934.949 118.579C949.515 121.369 962.687 123.693 974.464 125.553C977.873 132.681 979.578 144.923 979.578 162.279C979.578 179.634 978.648 197.3 976.789 215.276L943.317 211.557C941.147 193.271 936.809 179.325 930.3 169.717C916.973 150.502 889.855 140.894 848.945 140.894ZM1156.97 444.93L1083.98 444C1067.25 444 1047.1 444.465 1023.55 445.395L1017.97 420.291C1032.84 419.981 1042.61 418.431 1047.26 415.642C1052.21 412.853 1054.69 408.824 1054.69 403.555L1056.55 154.376C1056.55 148.797 1054.38 144.613 1050.04 141.824C1046.02 139.034 1037.8 137.64 1025.41 137.64L1019.36 112.536C1056.55 113.466 1081.97 113.93 1095.6 113.93C1109.55 113.93 1128.3 113.466 1151.85 112.536L1157.43 137.64C1142.56 137.95 1132.64 139.499 1127.68 142.289C1123.03 145.078 1120.71 149.107 1120.71 154.376V391.003C1120.71 407.429 1128.3 415.642 1143.49 415.642H1187.19C1229.03 415.642 1257.54 393.327 1272.73 348.698L1297.83 353.812C1297.83 359.081 1293.34 375.507 1284.35 403.09C1275.36 430.363 1268.7 444 1264.36 444L1156.97 444.93ZM1406.54 242.704V408.669C1406.54 413.627 1408.24 417.346 1411.65 419.826C1415.37 421.995 1422.81 423.08 1433.96 423.08L1439.08 445.395C1406.54 444.465 1383.91 444 1371.21 444C1358.81 444 1342.23 444.465 1321.46 445.395L1316.81 423.08C1329.52 422.77 1338.04 421.53 1342.38 419.361C1346.72 416.882 1348.89 413.317 1348.89 408.669V297.096C1348.89 289.968 1347.03 284.544 1343.31 280.825C1339.59 276.796 1332.15 274.781 1321 274.781H1314.95L1308.45 255.721C1336.34 249.212 1363.92 241.309 1391.2 232.012C1397.7 232.012 1401.89 232.786 1403.75 234.336C1405.61 235.576 1406.54 238.365 1406.54 242.704ZM1376.78 187.847C1368.42 187.847 1361.13 185.058 1354.93 179.479C1348.74 173.901 1345.64 166.773 1345.64 158.095C1345.64 149.417 1348.89 141.824 1355.4 135.315C1362.22 128.807 1369.81 125.553 1378.18 125.553C1386.55 125.553 1393.83 128.342 1400.03 133.921C1406.23 139.499 1409.33 146.627 1409.33 155.305C1409.33 163.983 1405.92 171.576 1399.1 178.085C1392.59 184.593 1385.15 187.847 1376.78 187.847ZM1649.36 334.287H1522.91C1522.91 352.262 1526.32 369.153 1533.14 384.959C1537.17 394.257 1543.68 401.85 1552.67 407.739C1561.96 413.627 1572.5 416.572 1584.28 416.572C1596.06 416.572 1606.9 414.247 1616.82 409.598C1627.05 404.64 1633.87 400.456 1637.28 397.046C1641 393.327 1643.63 392.398 1645.18 394.257L1652.62 404.485C1642.08 417.501 1628.91 428.349 1613.1 437.027C1597.61 445.395 1582.42 449.579 1567.54 449.579C1534.07 449.579 1508.19 440.126 1489.91 421.221C1471.62 402.005 1462.48 376.282 1462.48 344.049C1462.48 311.507 1472.71 285.319 1493.16 265.484C1513.62 245.648 1537.02 235.731 1563.36 235.731C1589.7 235.731 1611.24 243.324 1627.98 258.51C1645.02 273.696 1653.55 296.631 1653.55 327.313C1653.55 331.962 1652.15 334.287 1649.36 334.287ZM1600.09 306.394C1600.09 278.19 1588.46 264.089 1565.22 264.089C1553.75 264.089 1544.45 268.428 1537.33 277.106C1530.2 285.784 1526.01 295.546 1524.77 306.394H1600.09ZM1764 244.099C1764.31 246.268 1764.46 248.128 1764.46 249.677C1764.46 251.227 1764.62 253.551 1764.93 256.651C1765.24 259.75 1765.39 262.074 1765.39 263.624C1788.95 251.227 1806.15 243.479 1817 240.38C1827.84 237.28 1837.14 235.731 1844.89 235.731C1862.86 235.731 1877.43 242.239 1888.59 255.256C1899.74 268.273 1905.32 287.178 1905.32 311.972V408.669C1905.32 411.458 1905.48 413.782 1905.79 415.642C1906.41 417.192 1908.27 418.896 1911.37 420.756C1914.47 422.305 1918.96 423.08 1924.85 423.08L1929.96 445.395C1897.42 444.465 1876.97 444 1868.6 444C1860.23 444 1845.66 444.465 1824.9 445.395L1820.25 423.08C1830.79 422.77 1837.92 421.53 1841.63 419.361C1845.35 416.882 1847.37 413.317 1847.68 408.669V325.919C1847.68 309.493 1844.89 297.406 1839.31 289.658C1834.04 281.6 1824.9 277.571 1811.88 277.571C1799.17 277.571 1784.45 281.135 1767.72 288.263V408.669C1767.72 411.458 1767.87 413.782 1768.18 415.642C1768.8 417.192 1770.66 418.896 1773.76 420.756C1776.86 422.305 1781.35 423.08 1787.24 423.08L1792.36 445.395C1759.81 444.465 1739.36 444 1730.99 444C1722.62 444 1708.06 444.465 1687.29 445.395L1682.64 423.08C1693.18 422.77 1700.31 421.53 1704.03 419.361C1707.75 416.882 1709.76 413.317 1710.07 408.669V297.096C1710.07 289.658 1708.37 284.544 1704.96 281.755C1701.55 278.655 1697.21 277.106 1691.94 277.106C1686.98 277.106 1683.26 277.261 1680.78 277.571L1674.27 258.51C1693.49 253.861 1719.52 245.028 1752.38 232.012C1756.4 232.012 1758.88 232.941 1759.81 234.801C1761.05 236.351 1761.98 237.745 1762.6 238.985C1763.22 240.225 1763.69 241.929 1764 244.099ZM2029.93 376.591C2029.93 388.988 2032.25 398.751 2036.9 405.879C2041.86 413.008 2048.21 416.572 2055.96 416.572C2063.71 416.572 2072.85 412.543 2083.39 404.485C2085.87 402.625 2087.73 402.47 2088.97 404.02L2098.27 416.572C2090.21 424.32 2083.85 430.053 2079.21 433.772C2065.88 444 2050.07 449.114 2031.79 449.114C2013.5 449.114 1998.78 443.07 1987.62 430.983C1976.78 418.586 1971.35 404.795 1971.35 389.608V273.387H1948.11L1945.78 256.186C1962.83 250.607 1975.69 243.169 1984.37 233.871C1993.36 224.264 2001.72 211.712 2009.47 196.215H2020.63C2023.73 196.215 2025.74 196.835 2026.67 198.075C2027.6 199.315 2028.07 201.484 2028.07 204.583L2029.93 244.099H2088.97C2089.59 246.888 2089.9 250.762 2089.9 255.721C2089.9 260.68 2087.88 266.568 2083.85 273.387H2030.39L2029.93 376.591Z" fill="white"/>
</svg>
