<svg width="1125" height="322" viewBox="0 0 1125 322" fill="none" xmlns="http://www.w3.org/2000/svg">
<path d="M309.235 124.849H223.174V304.263C227.55 305.139 253.198 300.009 265.475 297.335C301.358 283.623 309.6 243.729 309.235 225.496V194.864V124.849Z" fill="white"/>
<path d="M86.79 17.6372H171.392V74.1601H92.26C66.5877 73.5767 59.6833 97.4986 59.4402 109.533V130.683V216.744C60.6072 229.288 67.4629 239.475 70.7448 243C76.8712 246.792 85.6961 248.713 89.3427 249.199H109.399H190.719C194.22 249.199 201.659 247.011 204.941 245.917C208.15 245.917 212.842 240.812 214.787 238.259V303.534H77.6734C66.2959 303.242 48.865 298.064 41.5717 295.511C25.8182 290.844 14.3435 273.631 10.5753 265.609C5.03236 259.191 1.21555 232.303 0 219.661V109.533L2.18798 88.0174C2.47972 62.0533 18.1116 43.1637 25.8911 36.9644C36.3935 24.7117 70.8664 18.9743 86.79 17.6372Z" fill="white"/>
<rect x="223.174" y="17.6372" width="86.0607" height="75.8501" rx="20.4212" fill="white"/>
<path d="M453.49 75.0867C434.451 75.0867 419.799 81.7917 409.535 95.2017C399.436 108.446 394.386 125.664 394.386 146.855C394.386 167.881 400.346 185.678 412.266 200.247C424.186 214.816 439.666 222.1 458.705 222.1C484.034 222.1 501.832 209.435 512.096 184.105L528.983 187.83C528.983 189.32 526.831 196.108 522.526 208.193C518.222 220.113 515.573 225.991 514.579 225.825C497.362 235.262 477.081 239.98 453.738 239.98C424.931 239.98 401.34 231.951 382.963 215.892C364.752 199.833 355.646 178.642 355.646 152.318C355.646 122.518 365.083 99.3406 383.956 82.7851C402.995 66.064 427.332 57.7034 456.966 57.7034C470.045 57.7034 484.2 59.5245 499.431 63.1667C507.212 64.6567 514.248 65.8984 520.539 66.8917C522.361 70.6995 523.271 77.239 523.271 86.5101C523.271 95.7812 522.774 105.218 521.781 114.82L503.901 112.833C502.742 103.066 500.424 95.6156 496.948 90.4834C489.829 80.219 475.343 75.0867 453.49 75.0867ZM618.03 237.497L579.041 237C570.101 237 559.34 237.248 546.758 237.745L543.778 224.335C551.725 224.169 556.94 223.342 559.423 221.852C562.072 220.362 563.396 218.209 563.396 215.395L564.39 82.2884C564.39 79.3084 563.231 77.0734 560.913 75.5834C558.761 74.0934 554.374 73.3484 547.751 73.3484L544.523 59.9384C564.39 60.4351 577.965 60.6834 585.25 60.6834C592.7 60.6834 602.716 60.4351 615.298 59.9384L618.278 73.3484C610.331 73.514 605.034 74.3417 602.385 75.8317C599.901 77.3217 598.66 79.474 598.66 82.2884V208.69C598.66 217.464 602.716 221.852 610.828 221.852H634.171C656.521 221.852 671.752 209.932 679.865 186.092L693.275 188.823C693.275 191.638 690.874 200.412 686.073 215.147C681.272 229.716 677.712 237 675.395 237L618.03 237.497ZM751.344 129.472V218.127C751.344 220.776 752.254 222.762 754.076 224.087C756.062 225.246 760.036 225.825 765.996 225.825L768.727 237.745C751.344 237.248 739.258 237 732.471 237C725.848 237 716.991 237.248 705.899 237.745L703.416 225.825C710.203 225.659 714.756 224.997 717.074 223.838C719.392 222.514 720.551 220.61 720.551 218.127V158.527C720.551 154.719 719.557 151.822 717.571 149.835C715.584 147.683 711.611 146.607 705.651 146.607H702.422L698.946 136.425C713.846 132.948 728.58 128.727 743.149 123.76C746.626 123.76 748.861 124.174 749.854 125.002C750.847 125.664 751.344 127.154 751.344 129.472ZM735.451 100.168C730.981 100.168 727.09 98.6784 723.779 95.6984C720.468 92.7184 718.812 88.9106 718.812 84.2751C718.812 79.6395 720.551 75.5834 724.027 72.1067C727.669 68.6301 731.726 66.8917 736.196 66.8917C740.666 66.8917 744.556 68.3817 747.867 71.3617C751.178 74.3417 752.834 78.1495 752.834 82.7851C752.834 87.4206 751.013 91.4767 747.371 94.9534C743.894 98.4301 739.921 100.168 735.451 100.168ZM881.057 178.393H813.511C813.511 187.996 815.332 197.018 818.974 205.462C821.126 210.428 824.603 214.484 829.404 217.63C834.371 220.776 839.999 222.348 846.291 222.348C852.582 222.348 858.376 221.107 863.674 218.623C869.137 215.974 872.779 213.739 874.601 211.918C876.587 209.932 877.994 209.435 878.822 210.428L882.796 215.892C877.167 222.845 870.131 228.639 861.687 233.275C853.409 237.745 845.297 239.98 837.351 239.98C819.471 239.98 805.647 234.931 795.879 224.832C786.111 214.567 781.227 200.826 781.227 183.608C781.227 166.225 786.691 152.236 797.617 141.64C808.544 131.044 821.043 125.747 835.116 125.747C849.188 125.747 860.694 129.803 869.634 137.915C878.739 146.027 883.292 158.278 883.292 174.668C883.292 177.152 882.547 178.393 881.057 178.393ZM854.734 163.493C854.734 148.428 848.526 140.895 836.109 140.895C829.983 140.895 825.017 143.213 821.209 147.848C817.401 152.484 815.166 157.699 814.504 163.493H854.734ZM942.293 130.217C942.458 131.376 942.541 132.369 942.541 133.197C942.541 134.024 942.624 135.266 942.789 136.922C942.955 138.577 943.038 139.819 943.038 140.647C955.62 134.024 964.808 129.886 970.603 128.23C976.397 126.574 981.364 125.747 985.503 125.747C995.105 125.747 1002.89 129.223 1008.85 136.177C1014.81 143.13 1017.79 153.229 1017.79 166.473V218.127C1017.79 219.617 1017.87 220.858 1018.03 221.852C1018.37 222.679 1019.36 223.59 1021.01 224.583C1022.67 225.411 1025.07 225.825 1028.22 225.825L1030.95 237.745C1013.56 237.248 1002.64 237 998.168 237C993.698 237 985.917 237.248 974.824 237.745L972.341 225.825C977.97 225.659 981.778 224.997 983.764 223.838C985.751 222.514 986.827 220.61 986.993 218.127V173.923C986.993 165.149 985.503 158.692 982.523 154.553C979.708 150.249 974.824 148.097 967.871 148.097C961.083 148.097 953.219 150.001 944.279 153.808V218.127C944.279 219.617 944.362 220.858 944.528 221.852C944.859 222.679 945.852 223.59 947.508 224.583C949.163 225.411 951.564 225.825 954.709 225.825L957.441 237.745C940.058 237.248 929.131 237 924.661 237C920.191 237 912.41 237.248 901.318 237.745L898.834 225.825C904.463 225.659 908.271 224.997 910.258 223.838C912.244 222.514 913.321 220.61 913.486 218.127V158.527C913.486 154.553 912.576 151.822 910.754 150.332C908.933 148.676 906.616 147.848 903.801 147.848C901.152 147.848 899.166 147.931 897.841 148.097L894.364 137.915C904.629 135.432 918.536 130.713 936.084 123.76C938.237 123.76 939.561 124.257 940.058 125.25C940.72 126.078 941.217 126.823 941.548 127.485C941.879 128.147 942.127 129.058 942.293 130.217ZM1084.35 200.992C1084.35 207.614 1085.59 212.829 1088.07 216.637C1090.72 220.444 1094.11 222.348 1098.25 222.348C1102.39 222.348 1107.28 220.196 1112.91 215.892C1114.23 214.898 1115.22 214.816 1115.89 215.643L1120.85 222.348C1116.55 226.487 1113.15 229.55 1110.67 231.537C1103.55 237 1095.11 239.732 1085.34 239.732C1075.57 239.732 1067.71 236.503 1061.75 230.047C1055.95 223.424 1053.06 216.057 1053.06 207.945V145.862H1040.64L1039.4 136.673C1048.5 133.693 1055.37 129.72 1060.01 124.753C1064.81 119.621 1069.28 112.916 1073.42 104.638H1079.38C1081.04 104.638 1082.11 104.969 1082.61 105.632C1083.11 106.294 1083.35 107.453 1083.35 109.108L1084.35 130.217H1115.89C1116.22 131.707 1116.38 133.776 1116.38 136.425C1116.38 139.074 1115.31 142.219 1113.15 145.862H1084.6L1084.35 200.992Z" fill="white"/>
</svg>
