<svg width="1590" height="455" viewBox="0 0 1590 455" fill="none" xmlns="http://www.w3.org/2000/svg">
<path d="M436.777 176.438H315.221V429.851C321.402 431.087 357.629 423.842 374.969 420.065C425.652 400.698 437.292 344.35 436.777 318.597V275.331V176.438Z" fill="#28ACE2"/>
<path d="M122.586 25.0083H242.082V104.844H130.312C94.0514 104.02 84.2994 137.808 83.956 154.805V184.679V306.235C85.6042 323.954 95.2875 338.341 99.9231 343.32C108.576 348.677 121.041 351.39 126.192 352.076H154.52H269.38C274.325 352.076 284.832 348.986 289.468 347.441C294.001 347.441 300.628 340.23 303.375 336.624V428.821H109.709C93.6393 428.409 69.0191 421.095 58.7177 417.49C36.4668 410.897 20.2593 386.586 14.937 375.254C7.10793 366.189 1.71689 328.211 0 310.356V154.805L3.09041 124.416C3.50246 87.7435 25.5817 61.063 36.5698 52.3069C51.4038 35.0006 100.095 26.8969 122.586 25.0083Z" fill="#01589A"/>
<rect x="315.221" y="25.0083" width="121.556" height="107.134" rx="28.8438" fill="#28ACE2"/>
<path d="M640.529 106.307C613.637 106.307 592.943 115.777 578.445 134.718C564.181 153.425 557.049 177.744 557.049 207.675C557.049 237.373 565.467 262.51 582.303 283.088C599.139 303.666 621.003 313.955 647.895 313.955C683.672 313.955 708.809 296.066 723.307 260.289L747.159 265.55C747.159 267.655 744.119 277.242 738.039 294.312C731.959 311.149 728.218 319.45 726.815 319.216C702.496 332.545 673.851 339.209 640.88 339.209C600.192 339.209 566.87 327.868 540.914 305.186C515.192 282.503 502.331 252.572 502.331 215.392C502.331 173.301 515.659 140.564 542.317 117.18C569.208 93.5623 603.582 81.7535 645.439 81.7535C663.913 81.7535 683.906 84.3257 705.419 89.4702C716.409 91.5747 726.347 93.3285 735.233 94.7315C737.805 100.11 739.091 109.346 739.091 122.441C739.091 135.536 738.39 148.865 736.987 162.428L711.732 159.622C710.096 145.825 706.822 135.302 701.911 128.053C691.856 113.555 671.395 106.307 640.529 106.307ZM872.933 335.702L817.864 335C805.237 335 790.037 335.351 772.265 336.052L768.056 317.111C779.281 316.878 786.646 315.708 790.154 313.604C793.895 311.499 795.766 308.459 795.766 304.484L797.169 116.478C797.169 112.269 795.532 109.113 792.259 107.008C789.219 104.903 783.022 103.851 773.668 103.851L769.109 84.9103C797.169 85.6119 816.344 85.9626 826.633 85.9626C837.155 85.9626 851.303 85.6119 869.074 84.9103L873.283 103.851C862.059 104.085 854.576 105.254 850.835 107.359C847.327 109.463 845.574 112.503 845.574 116.478V295.014C845.574 307.407 851.303 313.604 862.761 313.604H895.732C927.3 313.604 948.813 296.767 960.271 263.095L979.212 266.953C979.212 270.928 975.821 283.322 969.04 304.133C962.259 324.711 957.231 335 953.957 335L872.933 335.702ZM1061.23 183.122V308.342C1061.23 312.084 1062.52 314.89 1065.09 316.761C1067.9 318.398 1073.51 319.216 1081.93 319.216L1085.78 336.052C1061.23 335.351 1044.16 335 1034.57 335C1025.22 335 1012.71 335.351 997.043 336.052L993.535 319.216C1003.12 318.982 1009.55 318.047 1012.83 316.41C1016.1 314.539 1017.74 311.85 1017.74 308.342V224.161C1017.74 218.783 1016.33 214.69 1013.53 211.884C1010.72 208.844 1005.11 207.324 996.692 207.324H992.132L987.222 192.943C1008.27 188.033 1029.08 182.07 1049.66 175.055C1054.57 175.055 1057.72 175.639 1059.13 176.809C1060.53 177.744 1061.23 179.849 1061.23 183.122ZM1038.78 141.733C1032.47 141.733 1026.97 139.628 1022.3 135.419C1017.62 131.21 1015.28 125.832 1015.28 119.285C1015.28 112.737 1017.74 107.008 1022.65 102.097C1027.79 97.1868 1033.52 94.7315 1039.84 94.7315C1046.15 94.7315 1051.64 96.8361 1056.32 101.045C1061 105.254 1063.34 110.633 1063.34 117.18C1063.34 123.727 1060.76 129.456 1055.62 134.367C1050.71 139.278 1045.1 141.733 1038.78 141.733ZM1244.44 252.221H1149.04C1149.04 265.784 1151.61 278.528 1156.76 290.454C1159.8 297.469 1164.71 303.198 1171.49 307.641C1178.5 312.084 1186.45 314.305 1195.34 314.305C1204.22 314.305 1212.41 312.552 1219.89 309.044C1227.61 305.303 1232.75 302.146 1235.32 299.574C1238.13 296.767 1240.12 296.066 1241.29 297.469L1246.9 305.186C1238.95 315.007 1229.01 323.191 1217.09 329.739C1205.39 336.052 1193.94 339.209 1182.71 339.209C1157.46 339.209 1137.93 332.077 1124.13 317.813C1110.34 303.315 1103.44 283.906 1103.44 259.587C1103.44 235.034 1111.16 215.275 1126.59 200.309C1142.02 185.344 1159.68 177.861 1179.55 177.861C1199.43 177.861 1215.68 183.59 1228.31 195.048C1241.17 206.506 1247.6 223.81 1247.6 246.96C1247.6 250.468 1246.55 252.221 1244.44 252.221ZM1207.26 231.176C1207.26 209.897 1198.5 199.257 1180.96 199.257C1172.31 199.257 1165.29 202.531 1159.91 209.078C1154.53 215.626 1151.38 222.992 1150.44 231.176H1207.26ZM1330.94 184.175C1331.17 185.811 1331.29 187.214 1331.29 188.384C1331.29 189.553 1331.4 191.307 1331.64 193.645C1331.87 195.983 1331.99 197.737 1331.99 198.906C1349.76 189.553 1362.74 183.707 1370.92 181.368C1379.11 179.03 1386.12 177.861 1391.97 177.861C1405.53 177.861 1416.52 182.772 1424.94 192.593C1433.36 202.414 1437.57 216.678 1437.57 235.385V308.342C1437.57 310.447 1437.68 312.201 1437.92 313.604C1438.38 314.773 1439.79 316.059 1442.13 317.462C1444.46 318.631 1447.86 319.216 1452.3 319.216L1456.16 336.052C1431.6 335.351 1416.17 335 1409.86 335C1403.54 335 1392.55 335.351 1376.89 336.052L1373.38 319.216C1381.33 318.982 1386.71 318.047 1389.51 316.41C1392.32 314.539 1393.84 311.85 1394.07 308.342V245.908C1394.07 233.514 1391.97 224.395 1387.76 218.549C1383.78 212.469 1376.89 209.429 1367.06 209.429C1357.48 209.429 1346.37 212.118 1333.74 217.496V308.342C1333.74 310.447 1333.86 312.201 1334.09 313.604C1334.56 314.773 1335.96 316.059 1338.3 317.462C1340.64 318.631 1344.03 319.216 1348.47 319.216L1352.33 336.052C1327.78 335.351 1312.35 335 1306.03 335C1299.72 335 1288.73 335.351 1273.06 336.052L1269.55 319.216C1277.5 318.982 1282.88 318.047 1285.69 316.41C1288.49 314.539 1290.01 311.85 1290.25 308.342V224.161C1290.25 218.549 1288.96 214.69 1286.39 212.586C1283.82 210.247 1280.54 209.078 1276.57 209.078C1272.83 209.078 1270.02 209.195 1268.15 209.429L1263.24 195.048C1277.74 191.54 1297.38 184.876 1322.17 175.055C1325.21 175.055 1327.08 175.756 1327.78 177.159C1328.71 178.329 1329.42 179.381 1329.88 180.316C1330.35 181.252 1330.7 182.538 1330.94 184.175ZM1531.58 284.14C1531.58 293.494 1533.33 300.86 1536.84 306.238C1540.58 311.616 1545.38 314.305 1551.22 314.305C1557.07 314.305 1563.97 311.265 1571.92 305.186C1573.79 303.783 1575.19 303.666 1576.13 304.835L1583.14 314.305C1577.06 320.151 1572.27 324.477 1568.76 327.283C1558.71 335 1546.78 338.858 1532.98 338.858C1519.19 338.858 1508.08 334.298 1499.66 325.179C1491.48 315.825 1487.38 305.42 1487.38 293.961V206.272H1469.85L1468.09 193.294C1480.95 189.085 1490.66 183.473 1497.21 176.458C1503.99 169.209 1510.3 159.738 1516.15 148.047H1524.56C1526.9 148.047 1528.42 148.514 1529.12 149.45C1529.83 150.385 1530.18 152.022 1530.18 154.36L1531.58 184.175H1576.13C1576.59 186.279 1576.83 189.202 1576.83 192.943C1576.83 196.685 1575.31 201.128 1572.27 206.272H1531.93L1531.58 284.14Z" fill="#01589A"/>
</svg>
