<svg width="849" height="787" viewBox="0 0 849 787" fill="none" xmlns="http://www.w3.org/2000/svg">
<path d="M848 294.364H612V786.364C624 788.764 694.333 774.698 728 767.364C826.4 729.764 849 620.364 848 570.364V486.364V294.364Z" fill="white"/>
<path d="M238 0.364014H470V155.364H253C182.6 153.764 163.667 219.364 163 252.364V310.364V546.364C166.2 580.764 185 608.697 194 618.364C210.8 628.764 235 634.031 245 635.364H300H523C532.6 635.364 553 629.364 562 626.364C570.8 626.364 583.667 612.364 589 605.364V784.364H213C181.8 783.564 134 769.364 114 762.364C70.8 749.564 39.3333 702.364 29 680.364C13.8 662.764 3.33333 589.031 0 554.364V252.364L6 193.364C6.8 122.164 49.6667 70.364 71 53.364C99.8 19.764 194.333 4.03068 238 0.364014Z" fill="white"/>
<rect x="612" y="0.364014" width="236" height="208" rx="56" fill="white"/>
</svg>
