<svg width="78" height="78" viewBox="0 0 78 78" fill="none" xmlns="http://www.w3.org/2000/svg">
<path fill-rule="evenodd" clip-rule="evenodd" d="M24.3809 19.5H47.5469C50.4531 19.5043 53.2389 20.6618 55.2924 22.7184C57.346 24.775 58.4994 27.5625 58.4994 30.4688V60.9375C61.0852 60.9375 63.5652 59.9103 65.3937 58.0818C67.2221 56.2533 68.2494 53.7734 68.2494 51.1875V19.851C68.2494 14.9597 64.5931 10.7153 59.5914 10.296C58.8627 10.2368 58.1336 10.1826 57.4041 10.1335C56.5814 8.54843 55.3392 7.21976 53.813 6.29246C52.2868 5.36515 50.5352 4.87483 48.7494 4.875H43.8744C42.0885 4.87483 40.3369 5.36515 38.8107 6.29246C37.2845 7.21976 36.0423 8.54843 35.2196 10.1335C34.4884 10.1823 33.7571 10.2375 33.0324 10.296C28.1509 10.7087 24.5499 14.7615 24.3809 19.5ZM43.8744 9.75C42.5814 9.75 41.3415 10.2636 40.4272 11.1779C39.513 12.0921 38.9994 13.3321 38.9994 14.625H53.6244C53.6244 13.3321 53.1107 12.0921 52.1965 11.1779C51.2823 10.2636 50.0423 9.75 48.7494 9.75H43.8744Z" fill="#01589A"/>
<path fill-rule="evenodd" clip-rule="evenodd" d="M9.75 30.4688C9.75 27.1017 12.48 24.375 15.8438 24.375H47.5312C50.8983 24.375 53.625 27.105 53.625 30.4688V67.0312C53.625 70.395 50.895 73.125 47.5312 73.125H15.8438C14.2276 73.125 12.6776 72.483 11.5348 71.3402C10.392 70.1974 9.75 68.6474 9.75 67.0312V30.4688ZM19.5 39C19.5 38.3535 19.7568 37.7335 20.2139 37.2764C20.671 36.8193 21.291 36.5625 21.9375 36.5625H21.9635C22.61 36.5625 23.23 36.8193 23.6871 37.2764C24.1442 37.7335 24.401 38.3535 24.401 39V39.026C24.401 39.6725 24.1442 40.2925 23.6871 40.7496C23.23 41.2067 22.61 41.4635 21.9635 41.4635H21.9375C21.291 41.4635 20.671 41.2067 20.2139 40.7496C19.7568 40.2925 19.5 39.6725 19.5 39.026V39ZM26.8125 39C26.8125 38.3535 27.0693 37.7335 27.5264 37.2764C27.9835 36.8193 28.6035 36.5625 29.25 36.5625H41.4375C42.084 36.5625 42.704 36.8193 43.1611 37.2764C43.6182 37.7335 43.875 38.3535 43.875 39C43.875 39.6465 43.6182 40.2665 43.1611 40.7236C42.704 41.1807 42.084 41.4375 41.4375 41.4375H29.25C28.6035 41.4375 27.9835 41.1807 27.5264 40.7236C27.0693 40.2665 26.8125 39.6465 26.8125 39ZM19.5 48.75C19.5 48.1035 19.7568 47.4835 20.2139 47.0264C20.671 46.5693 21.291 46.3125 21.9375 46.3125H21.9635C22.61 46.3125 23.23 46.5693 23.6871 47.0264C24.1442 47.4835 24.401 48.1035 24.401 48.75V48.776C24.401 49.4225 24.1442 50.0425 23.6871 50.4996C23.23 50.9567 22.61 51.2135 21.9635 51.2135H21.9375C21.291 51.2135 20.671 50.9567 20.2139 50.4996C19.7568 50.0425 19.5 49.4225 19.5 48.776V48.75ZM26.8125 48.75C26.8125 48.1035 27.0693 47.4835 27.5264 47.0264C27.9835 46.5693 28.6035 46.3125 29.25 46.3125H41.4375C42.084 46.3125 42.704 46.5693 43.1611 47.0264C43.6182 47.4835 43.875 48.1035 43.875 48.75C43.875 49.3965 43.6182 50.0165 43.1611 50.4736C42.704 50.9307 42.084 51.1875 41.4375 51.1875H29.25C28.6035 51.1875 27.9835 50.9307 27.5264 50.4736C27.0693 50.0165 26.8125 49.3965 26.8125 48.75ZM19.5 58.5C19.5 57.8535 19.7568 57.2335 20.2139 56.7764C20.671 56.3193 21.291 56.0625 21.9375 56.0625H21.9635C22.61 56.0625 23.23 56.3193 23.6871 56.7764C24.1442 57.2335 24.401 57.8535 24.401 58.5V58.526C24.401 59.1725 24.1442 59.7925 23.6871 60.2496C23.23 60.7067 22.61 60.9635 21.9635 60.9635H21.9375C21.291 60.9635 20.671 60.7067 20.2139 60.2496C19.7568 59.7925 19.5 59.1725 19.5 58.526V58.5ZM26.8125 58.5C26.8125 57.8535 27.0693 57.2335 27.5264 56.7764C27.9835 56.3193 28.6035 56.0625 29.25 56.0625H41.4375C42.084 56.0625 42.704 56.3193 43.1611 56.7764C43.6182 57.2335 43.875 57.8535 43.875 58.5C43.875 59.1465 43.6182 59.7665 43.1611 60.2236C42.704 60.6807 42.084 60.9375 41.4375 60.9375H29.25C28.6035 60.9375 27.9835 60.6807 27.5264 60.2236C27.0693 59.7665 26.8125 59.1465 26.8125 58.5Z" fill="#01589A"/>
</svg>
