<svg width="69" height="69" viewBox="0 0 69 69" fill="none" xmlns="http://www.w3.org/2000/svg">
<path d="M68.25 34.5C68.25 53.1395 53.1395 68.25 34.5 68.25C15.8604 68.25 0.75 53.1395 0.75 34.5C0.75 15.8604 15.8604 0.75 34.5 0.75C53.1395 0.75 68.25 15.8604 68.25 34.5Z" fill="#4182B3"/>
<path fill-rule="evenodd" clip-rule="evenodd" d="M34.5 18.4688C35.8979 18.4688 37.0312 19.602 37.0312 21V33.4514L44.7273 41.1477C45.7158 42.1363 45.7158 43.7387 44.7273 44.7273C43.7387 45.7158 42.1363 45.7158 41.1477 44.7273L32.7102 36.2898C32.2354 35.8152 31.9688 35.1713 31.9688 34.5V21C31.9688 19.602 33.1021 18.4688 34.5 18.4688Z" fill="white"/>
</svg>
