<svg width="30" height="24" viewBox="0 0 30 24" fill="none" xmlns="http://www.w3.org/2000/svg">
<path d="M28.4501 15.5035C28.4501 19.6452 25.0526 23.0027 20.8616 23.0027H13.8424M18.3322 8.43112C19.1233 8.15477 19.9747 8.0044 20.8616 8.0044C21.7311 8.0044 22.5662 8.14889 23.3441 8.41488M23.3441 8.41488C22.9219 4.66831 19.7066 1.75513 15.8027 1.75513C11.6118 1.75513 8.2143 5.1126 8.2143 9.25427C8.2143 10.1704 8.3805 11.048 8.68474 11.8595M23.3441 8.41488C24.2512 8.72503 25.0801 9.20038 25.7941 9.8045M8.68474 11.8595C8.32797 11.7902 7.95923 11.754 7.58193 11.754C4.43871 11.754 1.89062 14.2721 1.89062 17.3783C1.89062 20.4846 4.43871 23.0027 7.58193 23.0027H8.53049M8.68474 11.8595C9.43429 12.0049 10.1311 12.2958 10.7438 12.7011" stroke="#01589A" stroke-width="1.99196" stroke-linecap="round"/>
</svg>
