<svg width="18" height="18" viewBox="0 0 18 18" fill="none" xmlns="http://www.w3.org/2000/svg">
<path d="M10.002 1.75195C10.002 0.785453 9.21847 0.00195312 8.25197 0.00195312H1.75195C0.785453 0.00195312 0.00195312 0.785453 0.00195312 1.75195V6.25195C0.00195312 7.2185 0.785453 8.002 1.75195 8.002H8.25197C9.21847 8.002 10.002 7.2185 10.002 6.25195V1.75195ZM5.98953 11.7338C5.98953 10.7673 5.20603 9.9838 4.23953 9.9838H1.75195C0.785453 9.9838 0.00195312 10.7673 0.00195312 11.7338V16.2482C0.00195312 17.2147 0.785453 17.9982 1.75195 17.9982H4.23953C5.20603 17.9982 5.98953 17.2147 5.98953 16.2482V11.7338ZM8.50197 1.75195V6.25195C8.50197 6.39002 8.38997 6.50195 8.25197 6.50195H1.75195C1.61388 6.50195 1.50195 6.39002 1.50195 6.25195V1.75195C1.50195 1.61388 1.61388 1.50195 1.75195 1.50195H8.25197C8.38997 1.50195 8.50197 1.61388 8.50197 1.75195ZM4.48953 11.7338V16.2482C4.48953 16.3862 4.3776 16.4982 4.23953 16.4982H1.75195C1.61388 16.4982 1.50195 16.3862 1.50195 16.2482V11.7338C1.50195 11.5957 1.61388 11.4838 1.75195 11.4838H4.23953C4.3776 11.4838 4.48953 11.5957 4.48953 11.7338ZM18.0037 11.7482C18.0037 10.7817 17.2202 9.9982 16.2537 9.9982H9.75367C8.83547 9.9982 8.08247 10.7053 8.00947 11.6046L8.00367 11.7482V16.2482C8.00367 17.2147 8.78717 17.9982 9.75367 17.9982H16.2537C17.2202 17.9982 18.0037 17.2147 18.0037 16.2482V11.7482ZM16.5037 11.7482V16.2482C16.5037 16.3862 16.3917 16.4982 16.2537 16.4982H9.75367C9.61557 16.4982 9.50367 16.3862 9.50367 16.2482V11.7482L9.51027 11.6908C9.53617 11.5804 9.63527 11.4982 9.75367 11.4982H16.2537C16.3917 11.4982 16.5037 11.6101 16.5037 11.7482ZM18.0037 1.75195C18.0037 0.785453 17.2202 0.00195312 16.2537 0.00195312H13.7537C12.7872 0.00195312 12.0037 0.785453 12.0037 1.75195V6.25195C12.0037 7.2185 12.7872 8.002 13.7537 8.002H16.2537C17.2202 8.002 18.0037 7.2185 18.0037 6.25195V1.75195ZM16.5037 6.25195C16.5037 6.39002 16.3917 6.50195 16.2537 6.50195H13.7537C13.6156 6.50195 13.5037 6.39002 13.5037 6.25195V1.75195C13.5037 1.61388 13.6156 1.50195 13.7537 1.50195H16.2537C16.3917 1.50195 16.5037 1.61388 16.5037 1.75195V6.25195Z" fill="white"/>
</svg>
