<svg width="25" height="33" viewBox="0 0 25 33" fill="none" xmlns="http://www.w3.org/2000/svg">
<path d="M16.5952 6.14332C15.9236 6.48715 15.1647 6.62294 14.4155 6.53332L13.2195 7.72934L13.9822 8.38369C18.4066 8.82136 21.5223 10.7107 21.5223 12.4224C21.5223 13.6444 19.932 14.9575 17.4186 15.7678C16.7599 16.3572 15.8976 16.7298 14.9485 16.7472L13.0938 18.5499C13.0895 18.7492 13.0678 18.9399 13.0332 19.1305C16.0882 19.0049 18.7619 18.3072 20.712 17.2065C20.7553 17.2758 20.803 17.3408 20.8593 17.4015C21.297 17.8738 21.5223 18.3505 21.5223 18.8142C21.5223 20.7642 17.4792 22.9439 12.0668 22.9439C6.6544 22.9439 2.61567 20.7556 2.61567 18.8055C2.61567 18.3635 2.81934 17.9085 3.21801 17.4578C3.29168 17.3712 3.35235 17.2802 3.40001 17.1805C4.01536 17.5315 4.71304 17.8348 5.46705 18.1035C5.55805 17.1718 5.98706 16.3398 6.62407 15.7245C4.16269 14.9141 2.61567 13.6184 2.61567 12.4138C2.61567 11.3521 3.82469 10.2211 5.79639 9.4107C5.5642 8.9112 5.44438 8.36684 5.44538 7.81601C5.44538 7.413 5.51038 7.02733 5.62305 6.66333C2.20399 7.82901 0.015625 9.92205 0.015625 12.4138V25.3836C0.015625 29.223 5.19838 32.1134 12.0712 32.1134C18.9439 32.1134 24.1267 29.2187 24.1267 25.3836V12.4138C24.1267 9.48004 21.0933 7.101 16.5952 6.14332ZM12.0712 29.5177C6.65873 29.5177 2.61567 27.338 2.61567 25.388C2.61567 24.946 2.81934 24.491 3.21801 24.0403C3.33068 23.9103 3.41301 23.7673 3.46935 23.6113C5.62305 24.816 8.6391 25.5353 12.0712 25.5353C15.4902 25.5353 18.4889 24.8203 20.6426 23.6286C20.699 23.7499 20.7683 23.8669 20.8636 23.9709C21.3013 24.4433 21.5266 24.92 21.5266 25.3836C21.5266 27.338 17.4836 29.5177 12.0712 29.5177ZM14.8705 10.8234C14.6625 10.8234 14.4675 10.8624 14.2812 10.9187L11.2868 8.34902C11.3301 8.18002 11.3605 8.00668 11.3605 7.82034C11.3605 7.61234 11.3215 7.41734 11.2651 7.231L13.9129 4.58329C14.2032 4.73496 14.5239 4.82596 14.8705 4.82596C15.4253 4.82482 15.957 4.60393 16.3493 4.21166C16.7415 3.81939 16.9624 3.28768 16.9636 2.73293C16.9624 2.17817 16.7415 1.64647 16.3493 1.25419C15.957 0.861921 15.4253 0.641038 14.8705 0.639893C14.3158 0.641038 13.7841 0.861921 13.3918 1.25419C12.9995 1.64647 12.7786 2.17817 12.7775 2.73293C12.7775 2.77193 12.7862 2.80659 12.7905 2.84126L9.82212 5.80964C9.64445 5.76198 9.46245 5.72731 9.27178 5.72731C8.11909 5.72731 7.17874 6.66766 7.17874 7.82034C7.17874 8.97303 8.11909 9.91338 9.27178 9.91338C9.48411 9.91338 9.68779 9.87004 9.88279 9.81371L12.8598 12.3704C12.8122 12.5438 12.7775 12.7258 12.7775 12.9164C12.7775 13.1244 12.8165 13.3238 12.8772 13.5144L9.83512 16.4742C9.65312 16.4222 9.46678 16.3875 9.27178 16.3875C8.11909 16.3875 7.17874 17.3278 7.17874 18.4805C7.17874 19.6332 8.11909 20.5736 9.27178 20.5736C9.82653 20.5724 10.3582 20.3515 10.7505 19.9593C11.1428 19.567 11.3637 19.0353 11.3648 18.4805C11.3648 18.2768 11.3258 18.0862 11.2738 17.9042L14.3289 14.9315C14.5022 14.9791 14.6842 15.0138 14.8705 15.0138C15.4262 15.0138 15.9591 14.7931 16.3521 14.4001C16.745 14.0072 16.9657 13.4743 16.9657 12.9186C16.9657 12.3629 16.745 11.83 16.3521 11.4371C15.9591 11.0441 15.4262 10.8234 14.8705 10.8234ZM14.8749 2.03525C15.0599 2.03525 15.2374 2.10875 15.3682 2.23959C15.499 2.37043 15.5725 2.54789 15.5725 2.73293C15.5725 2.91796 15.499 3.09542 15.3682 3.22626C15.2374 3.3571 15.0599 3.43061 14.8749 3.43061C14.6898 3.43061 14.5124 3.3571 14.3815 3.22626C14.2507 3.09542 14.1772 2.91796 14.1772 2.73293C14.1772 2.54789 14.2507 2.37043 14.3815 2.23959C14.5124 2.10875 14.6898 2.03525 14.8749 2.03525ZM9.27611 8.51802C9.09108 8.51802 8.91362 8.44452 8.78278 8.31368C8.65194 8.18284 8.57843 8.00538 8.57843 7.82034C8.57843 7.63531 8.65194 7.45785 8.78278 7.32701C8.91362 7.19617 9.09108 7.12267 9.27611 7.12267C9.46115 7.12267 9.6386 7.19617 9.76944 7.32701C9.90028 7.45785 9.97379 7.63531 9.97379 7.82034C9.97379 8.00538 9.90028 8.18284 9.76944 8.31368C9.6386 8.44452 9.46115 8.51802 9.27611 8.51802ZM9.27611 19.1695C9.09108 19.1695 8.91362 19.096 8.78278 18.9652C8.65194 18.8343 8.57843 18.6569 8.57843 18.4719C8.57843 18.2868 8.65194 18.1094 8.78278 17.9785C8.91362 17.8477 9.09108 17.7742 9.27611 17.7742C9.46115 17.7742 9.6386 17.8477 9.76944 17.9785C9.90028 18.1094 9.97379 18.2868 9.97379 18.4719C9.97379 18.6569 9.90028 18.8343 9.76944 18.9652C9.6386 19.096 9.46115 19.1695 9.27611 19.1695ZM14.8749 13.6141C14.6898 13.6141 14.5124 13.5406 14.3815 13.4098C14.2507 13.2789 14.1772 13.1015 14.1772 12.9164C14.1772 12.7314 14.2507 12.5539 14.3815 12.4231C14.5124 12.2923 14.6898 12.2188 14.8749 12.2188C15.0599 12.2188 15.2374 12.2923 15.3682 12.4231C15.499 12.5539 15.5725 12.7314 15.5725 12.9164C15.5725 13.1015 15.499 13.2789 15.3682 13.4098C15.2374 13.5406 15.0599 13.6141 14.8749 13.6141Z" fill="#01589A" stroke="#01589A" stroke-width="0.000314779"/>
</svg>
