<svg width="65" height="64" viewBox="0 0 65 64" fill="none" xmlns="http://www.w3.org/2000/svg">
<path d="M27.3388 21.4254C28.0772 20.8388 28.9543 20.4122 29.8945 20.1456V29.2292C28.9363 28.9571 28.0616 28.5239 27.3388 27.9496C26.0591 26.9331 25.564 25.7371 25.564 24.6875C25.564 23.6379 26.0591 22.4419 27.3388 21.4254Z" fill="#D89614"/>
<path d="M34.7695 43.9002V34.7246C35.8981 34.999 36.9268 35.4638 37.7639 36.0917C39.1499 37.1312 39.6445 38.3208 39.6445 39.3124C39.6445 40.3041 39.1499 41.4936 37.7639 42.5332C36.9268 43.161 35.8981 43.6258 34.7695 43.9002Z" fill="#D89614"/>
<path fill-rule="evenodd" clip-rule="evenodd" d="M32.332 0.3125C14.8315 0.3125 0.644531 14.4995 0.644531 32C0.644531 49.5005 14.8315 63.6875 32.332 63.6875C49.8326 63.6875 64.0195 49.5005 64.0195 32C64.0195 14.4995 49.8326 0.3125 32.332 0.3125ZM34.7695 12.5C34.7695 11.1538 33.6782 10.0625 32.332 10.0625C30.9858 10.0625 29.8945 11.1538 29.8945 12.5V15.1508C27.8571 15.5117 25.9143 16.3309 24.3064 17.6082C21.9912 19.4474 20.689 21.9942 20.689 24.6875C20.689 27.3808 21.9912 29.9276 24.3064 31.7668C25.9394 33.064 27.8882 33.8688 29.8945 34.2241V43.9001C28.7663 43.6256 27.7378 43.1609 26.9009 42.5332L24.0446 40.3908C22.9676 39.5831 21.4398 39.8013 20.6321 40.8783C19.8243 41.9552 20.0426 43.483 21.1195 44.2908L23.9758 46.4331C25.7087 47.7328 27.7753 48.5281 29.8945 48.8686V51.5C29.8945 52.8462 30.9858 53.9375 32.332 53.9375C33.6782 53.9375 34.7695 52.8462 34.7695 51.5V48.8687C36.889 48.5283 38.9559 47.733 40.689 46.4331C43.1104 44.6169 44.5195 42.0636 44.5195 39.3124C44.5195 36.5612 43.1104 34.0079 40.689 32.1917C38.9559 30.8918 36.889 30.0965 34.7695 29.7561V20.1458C35.7094 20.4124 36.5862 20.8389 37.3244 21.4254L38.6728 22.4965C39.7269 23.3339 41.2602 23.1582 42.0975 22.1041C42.9349 21.05 42.7592 19.5167 41.7051 18.6794L40.3567 17.6082C38.7491 16.3311 36.8066 15.512 34.7695 15.1509V12.5Z" fill="#D89614"/>
</svg>
