<svg width="23" height="22" viewBox="0 0 23 22" fill="none" xmlns="http://www.w3.org/2000/svg">
<g clip-path="url(#clip0_10771_5385)">
<path d="M3.87109 6.8418L4.7793 8.90332C4.57298 9.56588 4.46096 10.2702 4.46094 11C4.46102 11.8098 4.59939 12.5889 4.85254 13.3145L4.22363 15.6621L2.11035 15.7061C1.39977 14.2911 1 12.693 1 11C1.00003 9.38885 1.36282 7.86417 2.01074 6.50098L3.87109 6.8418Z" fill="#FBBB00" stroke="#115EA5"/>
<path d="M22.3082 8.94482C22.4345 9.61024 22.5004 10.2974 22.5004 10.9998C22.5004 11.7873 22.4176 12.5555 22.2598 13.2965C21.7243 15.818 20.3252 18.0198 18.3869 19.578L18.3863 19.5774L15.2477 19.4172L14.8035 16.6442C16.0896 15.8899 17.0947 14.7096 17.6242 13.2965H11.7422V8.94482H22.3082Z" fill="#518EF8"/>
<path d="M18.3874 19.5776L18.388 19.5782C16.503 21.0934 14.1083 22 11.5016 22C7.3125 22 3.67043 19.6586 1.8125 16.2129L5.37723 13.2949C6.30617 15.7741 8.69777 17.539 11.5016 17.539C12.7067 17.539 13.8358 17.2132 14.8046 16.6445L18.3874 19.5776Z" fill="#28B446"/>
<path d="M18.5218 2.53241L14.9583 5.44981C13.9556 4.82307 12.7703 4.46102 11.5005 4.46102C8.63327 4.46102 6.19694 6.30682 5.31454 8.87494L1.73107 5.9412H1.73047C3.5612 2.41154 7.2492 0 11.5005 0C14.1695 0 16.6167 0.950727 18.5218 2.53241Z" fill="#F14336"/>
</g>
<defs>
<clipPath id="clip0_10771_5385">
<rect width="22" height="22" fill="white" transform="translate(0.5)"/>
</clipPath>
</defs>
</svg>
