<svg width="16" height="20" viewBox="0 0 16 20" fill="none" xmlns="http://www.w3.org/2000/svg">
<path d="M4.75 9.5C4.33579 9.5 4 9.8358 4 10.25C4 10.6642 4.33579 11 4.75 11H11.25C11.6642 11 12 10.6642 12 10.25C12 9.8358 11.6642 9.5 11.25 9.5H4.75ZM4.75 12.25C4.33579 12.25 4 12.5858 4 13C4 13.4142 4.33579 13.75 4.75 13.75H11.25C11.6642 13.75 12 13.4142 12 13C12 12.5858 11.6642 12.25 11.25 12.25H4.75ZM4.75 15C4.33579 15 4 15.3358 4 15.75C4 16.1642 4.33579 16.5 4.75 16.5H11.25C11.6642 16.5 12 16.1642 12 15.75C12 15.3358 11.6642 15 11.25 15H4.75ZM9.585 0.586L15.414 6.414C15.789 6.789 16 7.298 16 7.828V18C16 19.104 15.104 20 14 20H2C0.896 20 0 19.104 0 18V2C0 0.896 0.896 0 2 0H8.172C8.1999 0 8.2271 0.00371005 8.2542 0.00741005C8.2738 0.01008 8.2933 0.0127399 8.313 0.0139999C8.528 0.0289999 8.74 0.0699999 8.937 0.152C8.9944 0.17648 9.0488 0.20797 9.103 0.23933C9.1197 0.24897 9.1363 0.25859 9.153 0.268C9.1685 0.27647 9.1845 0.28426 9.2005 0.29207C9.2281 0.30548 9.2557 0.31894 9.281 0.336C9.359 0.389 9.429 0.452 9.5 0.516C9.5115 0.5262 9.5238 0.53567 9.5363 0.5452C9.5531 0.55808 9.57 0.57105 9.585 0.586ZM14 18.5C14.276 18.5 14.5 18.275 14.5 18V8H10C8.896 8 8 7.104 8 6V1.5H2C1.724 1.5 1.5 1.725 1.5 2V18C1.5 18.275 1.724 18.5 2 18.5H14ZM13.378 6.5L9.5 2.621V6C9.5 6.275 9.724 6.5 10 6.5H13.378Z" fill="white"/>
</svg>
