<svg width="20" height="20" viewBox="0 0 20 20" fill="none" xmlns="http://www.w3.org/2000/svg">
<path d="M5.50007 1.5C4.67158 1.5 4 2.1716 4 3C4 3.8284 4.67158 4.5 5.50007 4.5C6.32856 4.5 7.00014 3.8284 7.00014 3C7.00014 2.1716 6.32856 1.5 5.50007 1.5ZM2.5 3C2.5 1.34312 3.8432 0 5.50007 0C7.15694 0 8.5001 1.34312 8.5001 3C8.5001 4.65688 7.15694 6 5.50007 6C3.8432 6 2.5 4.65688 2.5 3ZM1.76784 7C0.79149 7 7.72747e-08 7.79149 7.72747e-08 8.7678V9.1272C-9.92273e-06 9.3355 -5.99027e-05 10.536 0.70086 11.7027C1.24767 12.6128 2.17656 13.4301 3.67527 13.7964C3.8811 13.2473 4.25637 12.7811 4.73742 12.4612C3.13355 12.2896 2.37565 11.5776 1.98665 10.9302C1.5026 10.1245 1.5 9.2669 1.5 9.125V8.7678C1.5 8.6199 1.61992 8.5 1.76784 8.5H6.03095C6.09841 7.95903 6.27389 7.4516 6.53514 7H1.76784ZM13.465 7C13.7263 7.4516 13.9017 7.95903 13.9692 8.5H18.2322C18.3801 8.5 18.5 8.6199 18.5 8.7678V9.125C18.5 9.2669 18.4974 10.1245 18.0134 10.9302C17.6244 11.5776 16.8664 12.2896 15.2626 12.4612C15.7436 12.7811 16.1189 13.2473 16.3247 13.7964C17.8234 13.4301 18.7523 12.6128 19.2991 11.7027C20.0001 10.536 20 9.3355 20 9.1272V8.7678C20 7.79149 19.2085 7 18.2322 7H13.465ZM13 3C13 2.1716 13.6716 1.5 14.5001 1.5C15.3286 1.5 16.0001 2.1716 16.0001 3C16.0001 3.8284 15.3286 4.5 14.5001 4.5C13.6716 4.5 13 3.8284 13 3ZM14.5001 0C12.8432 0 11.5 1.34312 11.5 3C11.5 4.65688 12.8432 6 14.5001 6C16.1569 6 17.5001 4.65688 17.5001 3C17.5001 1.34312 16.1569 0 14.5001 0ZM10.0001 7.5C9.1716 7.5 8.5 8.1716 8.5 9C8.5 9.8284 9.1716 10.5 10.0001 10.5C10.8286 10.5 11.5001 9.8284 11.5001 9C11.5001 8.1716 10.8286 7.5 10.0001 7.5ZM7 9C7 7.34312 8.3432 6 10.0001 6C11.6569 6 13.0001 7.34312 13.0001 9C13.0001 10.6569 11.6569 12 10.0001 12C8.3432 12 7 10.6569 7 9ZM4.5 14.7678C4.5 13.7915 5.29149 13 6.26784 13H13.7322C14.7085 13 15.5 13.7915 15.5 14.7678V15.1272C15.5 15.3355 15.5001 16.536 14.7991 17.7027C14.0578 18.9367 12.614 20 10 20C7.38597 20 5.94224 18.9367 5.20085 17.7027C4.49994 16.536 4.49999 15.3355 4.5 15.1272V14.7678ZM6.26784 14.5C6.11992 14.5 6 14.6199 6 14.7678V15.125C6 15.2669 6.0026 16.1245 6.48665 16.9302C6.93276 17.6727 7.86403 18.5 10 18.5C12.136 18.5 13.0672 17.6727 13.5134 16.9302C13.9974 16.1245 14 15.2669 14 15.125V14.7678C14 14.6199 13.8801 14.5 13.7322 14.5H6.26784Z" fill="white"/>
</svg>
