<svg width="48" height="48" viewBox="0 0 48 48" fill="none" xmlns="http://www.w3.org/2000/svg">
<path d="M9.70054 40C9.173 39.9925 8.6698 39.7768 8.30054 39.4C6.28446 37.377 4.68957 34.9744 3.60819 32.331C2.5268 29.6876 1.98038 26.856 2.00054 24C2.00054 18.1652 4.31839 12.5695 8.44419 8.44365C12.57 4.31785 18.1658 2 24.0005 2C29.8353 2 35.4311 4.31785 39.5569 8.44365C43.6827 12.5695 46.0005 18.1652 46.0005 24C46.0207 26.856 45.4743 29.6876 44.3929 32.331C43.3115 34.9744 41.7166 37.377 39.7005 39.4C39.5286 39.6292 39.3094 39.8188 39.0578 39.956C38.8063 40.0932 38.5281 40.1747 38.2423 40.195C37.9565 40.2153 37.6696 40.1739 37.4012 40.0737C37.1327 39.9735 36.8889 39.8168 36.6863 39.6142C36.4837 39.4116 36.327 39.1678 36.2268 38.8994C36.1266 38.6309 36.0853 38.344 36.1056 38.0582C36.1259 37.7724 36.2074 37.4943 36.3445 37.2427C36.4817 36.9911 36.6713 36.7719 36.9005 36.6C39.3688 34.0636 41.0346 30.8558 41.6896 27.3777C42.3446 23.8997 41.9597 20.3057 40.5831 17.0452C39.2065 13.7847 36.8992 11.0024 33.9498 9.04611C31.0004 7.08987 27.5397 6.04651 24.0005 6.04651C20.4613 6.04651 17.0007 7.08987 14.0513 9.04611C11.1019 11.0024 8.79459 13.7847 7.41798 17.0452C6.04136 20.3057 5.65648 23.8997 6.31147 27.3777C6.96646 30.8558 8.63225 34.0636 11.1005 36.6C11.2945 36.778 11.4494 36.9943 11.5554 37.2353C11.6613 37.4763 11.716 37.7367 11.716 38C11.716 38.2633 11.6613 38.5237 11.5554 38.7647C11.4494 39.0057 11.2945 39.222 11.1005 39.4C10.7313 39.7768 10.2281 39.9925 9.70054 40Z" fill="#01589A"/>
<path d="M22.5989 14.6001L14.5989 22.5001C14.2525 22.8542 14.0423 23.3195 14.0057 23.8136C13.9691 24.3077 14.1084 24.7988 14.3989 25.2001C14.5608 25.4411 14.7757 25.6418 15.0272 25.7868C15.2788 25.9318 15.5602 26.0173 15.8498 26.0366C16.1395 26.0559 16.4298 26.0086 16.6983 25.8982C16.9668 25.7879 17.2065 25.6175 17.3989 25.4001L21.9989 20.8001V44.0001C21.9989 44.5305 22.2096 45.0392 22.5847 45.4143C22.9598 45.7894 23.4685 46.0001 23.9989 46.0001C24.5294 46.0001 25.0381 45.7894 25.4131 45.4143C25.7882 45.0392 25.9989 44.5305 25.9989 44.0001V20.8001L30.5989 25.4001C30.7914 25.6175 31.031 25.7879 31.2996 25.8982C31.5681 26.0086 31.8584 26.0559 32.148 26.0366C32.4377 26.0173 32.7191 25.9318 32.9706 25.7868C33.2221 25.6418 33.4371 25.4411 33.5989 25.2001C33.8894 24.7988 34.0287 24.3077 33.9921 23.8136C33.9555 23.3195 33.7454 22.8542 33.3989 22.5001L25.3989 14.6001C25.2209 14.4061 25.0046 14.2512 24.7636 14.1453C24.5226 14.0393 24.2622 13.9846 23.9989 13.9846C23.7357 13.9846 23.4753 14.0393 23.2343 14.1453C22.9933 14.2512 22.7769 14.4061 22.5989 14.6001Z" fill="#01589A"/>
</svg>
