<svg width="196" height="137" viewBox="0 0 196 137" fill="none" xmlns="http://www.w3.org/2000/svg">
<g clip-path="url(#clip0_4129_6265)">
<path d="M38.9521 136.02C60.4647 136.02 77.9042 134.695 77.9042 133.061C77.9042 131.427 60.4647 130.103 38.9521 130.103C17.4394 130.103 0 131.427 0 133.061C0 134.695 17.4394 136.02 38.9521 136.02Z" fill="#E6E6E6"/>
<path d="M29.7734 30.1805C36.5523 27.2972 44.9954 29.124 53.2411 30.3919C53.3178 28.8565 54.2479 26.9878 53.2736 25.9167C52.09 24.6153 52.1989 23.2479 52.9112 21.8726C54.7325 18.3558 52.123 14.6138 49.4883 11.5023C48.8944 10.8026 48.1439 10.2528 47.2976 9.89759C46.4514 9.54241 45.5333 9.39183 44.6179 9.45811L39.7372 9.80673C38.5495 9.89156 37.4161 10.3371 36.4885 11.0837C35.561 11.8303 34.8836 12.8424 34.547 13.9845C33.3816 15.5695 32.7578 17.1501 33.1505 18.7225C31.4049 19.9154 31.1116 21.3554 31.896 22.9787C32.5612 24.0008 32.5541 24.9957 31.8658 25.9631C30.9618 27.1965 30.2694 28.5717 29.8171 30.0324L29.7734 30.1805Z" fill="#2F2E41"/>
<path d="M190.868 117.587H52.7068C51.4782 117.587 50.2999 117.099 49.4311 116.23C48.5623 115.361 48.0742 114.183 48.0742 112.954C98.1576 107.134 147.3 107.134 195.5 112.954C195.5 114.183 195.012 115.361 194.144 116.23C193.275 117.099 192.096 117.587 190.868 117.587Z" fill="#2F2E41"/>
<path d="M195.5 113.227L48.0742 112.954L65.1604 84.2046L65.2421 84.0683V20.7077C65.2421 19.9387 65.3935 19.1771 65.6878 18.4666C65.9821 17.7561 66.4134 17.1105 66.9572 16.5667C67.5011 16.0228 68.1467 15.5915 68.8572 15.2972C69.5677 15.0029 70.3293 14.8515 71.0983 14.8516H171.659C172.428 14.8515 173.189 15.0029 173.9 15.2972C174.61 15.5915 175.256 16.0228 175.8 16.5667C176.344 17.1105 176.775 17.7561 177.069 18.4666C177.364 19.1771 177.515 19.9387 177.515 20.7077V84.5043L195.5 113.227Z" fill="#3F3D56"/>
<path d="M70.9622 18.9395C70.4565 18.94 69.9716 19.1412 69.614 19.4988C69.2564 19.8564 69.0553 20.3413 69.0547 20.847V78.6185C69.0553 79.1242 69.2564 79.609 69.614 79.9667C69.9716 80.3243 70.4565 80.5254 70.9622 80.526H172.607C173.113 80.5254 173.598 80.3242 173.955 79.9666C174.313 79.609 174.514 79.1242 174.515 78.6185V20.847C174.514 20.3413 174.313 19.8564 173.955 19.4988C173.598 19.1412 173.113 18.94 172.607 18.9395H70.9622Z" fill="white"/>
<path d="M71.3871 88.156C71.2308 88.1563 71.0778 88.2012 70.9463 88.2855C70.8147 88.3698 70.7099 88.49 70.6443 88.6318L65.3795 100.077C65.3222 100.202 65.2972 100.339 65.3066 100.475C65.3161 100.612 65.3599 100.744 65.4338 100.86C65.5078 100.975 65.6096 101.07 65.7299 101.136C65.8501 101.202 65.985 101.236 66.1221 101.236H176.838C176.977 101.236 177.114 101.201 177.236 101.133C177.358 101.065 177.46 100.967 177.533 100.849C177.606 100.73 177.648 100.595 177.654 100.456C177.661 100.316 177.631 100.178 177.569 100.053L171.846 88.6079C171.779 88.4718 171.674 88.3574 171.545 88.2775C171.416 88.1977 171.267 88.1556 171.115 88.156H71.3871Z" fill="#2F2E41"/>
<path d="M121.375 17.9853C122.052 17.9853 122.601 17.4363 122.601 16.759C122.601 16.0817 122.052 15.5327 121.375 15.5327C120.697 15.5327 120.148 16.0817 120.148 16.759C120.148 17.4363 120.697 17.9853 121.375 17.9853Z" fill="white"/>
<path d="M110.494 103.417C110.314 103.417 110.139 103.476 109.997 103.585C109.854 103.695 109.751 103.848 109.704 104.021L108.384 108.927C108.351 109.048 108.347 109.175 108.371 109.298C108.395 109.421 108.448 109.537 108.524 109.636C108.6 109.736 108.699 109.817 108.811 109.872C108.924 109.928 109.047 109.957 109.173 109.957H134.288C134.418 109.957 134.547 109.926 134.663 109.866C134.779 109.806 134.878 109.719 134.954 109.613C135.03 109.507 135.079 109.384 135.097 109.255C135.116 109.126 135.103 108.995 135.06 108.872L133.363 103.967C133.307 103.806 133.203 103.667 133.064 103.568C132.926 103.47 132.76 103.417 132.59 103.417H110.494Z" fill="#2F2E41"/>
<path d="M177.515 83.1143V84.2042H65.1602L65.2447 84.0681V83.1143H177.515Z" fill="#2F2E41"/>
<path d="M174.38 38.151C184.915 38.151 193.456 29.6106 193.456 19.0755C193.456 8.54038 184.915 0 174.38 0C163.845 0 155.305 8.54038 155.305 19.0755C155.305 29.6106 163.845 38.151 174.38 38.151Z" fill="#01589A"/>
<path d="M182.282 27.387H166.477C166.188 27.3867 165.911 27.2718 165.706 27.0674C165.502 26.8631 165.387 26.586 165.387 26.297V16.7592C165.387 16.4702 165.502 16.1931 165.706 15.9888C165.911 15.7844 166.188 15.6695 166.477 15.6692H182.282C182.571 15.6695 182.848 15.7844 183.053 15.9888C183.257 16.1931 183.372 16.4702 183.372 16.7592V26.297C183.372 26.586 183.257 26.8631 183.053 27.0674C182.848 27.2718 182.571 27.3867 182.282 27.387ZM166.477 16.7592V26.297H182.283L182.282 16.7592L166.477 16.7592Z" fill="white"/>
<path d="M179.287 16.7595H169.477V12.3994C169.477 9.24132 171.54 6.94922 174.382 6.94922C177.224 6.94922 179.287 9.24132 179.287 12.3994L179.287 16.7595ZM170.567 15.6694H178.197V12.3994C178.197 9.83222 176.628 8.03925 174.382 8.03925C172.135 8.03925 170.567 9.83223 170.567 12.3994L170.567 15.6694Z" fill="white"/>
<path d="M174.383 22.3456C174.985 22.3456 175.473 21.8576 175.473 21.2556C175.473 20.6535 174.985 20.1655 174.383 20.1655C173.781 20.1655 173.293 20.6535 173.293 21.2556C173.293 21.8576 173.781 22.3456 174.383 22.3456Z" fill="white"/>
<path d="M161.064 60.9305H82.5094C82.1237 60.93 81.754 60.7766 81.4813 60.5039C81.2085 60.2312 81.0551 59.8615 81.0547 59.4758V39.9896C81.0551 39.604 81.2085 39.2342 81.4813 38.9615C81.754 38.6888 82.1237 38.5354 82.5094 38.5349H161.064C161.45 38.5354 161.82 38.6888 162.093 38.9615C162.365 39.2342 162.519 39.604 162.519 39.9896V59.4758C162.519 59.8615 162.365 60.2312 162.093 60.5039C161.82 60.7766 161.45 60.93 161.064 60.9305ZM82.5094 39.1168C82.278 39.1171 82.0561 39.2091 81.8925 39.3727C81.7289 39.5364 81.6368 39.7582 81.6366 39.9896V59.4758C81.6368 59.7072 81.7289 59.9291 81.8925 60.0927C82.0561 60.2563 82.278 60.3484 82.5094 60.3486H161.064C161.296 60.3484 161.518 60.2563 161.681 60.0927C161.845 59.9291 161.937 59.7072 161.937 59.4758V39.9896C161.937 39.7582 161.845 39.5364 161.681 39.3727C161.518 39.2091 161.296 39.1171 161.064 39.1168L82.5094 39.1168Z" fill="#E6E6E6"/>
<path d="M94.7148 54.9106C97.9875 54.9106 100.641 52.2575 100.641 48.9848C100.641 45.7121 97.9875 43.0591 94.7148 43.0591C91.4421 43.0591 88.7891 45.7121 88.7891 48.9848C88.7891 52.2575 91.4421 54.9106 94.7148 54.9106Z" fill="#E6E6E6"/>
<path d="M108.399 45.0347C108.27 45.0345 108.141 45.0599 108.021 45.1094C107.901 45.1589 107.792 45.2317 107.7 45.3234C107.608 45.4151 107.535 45.5241 107.485 45.644C107.436 45.7639 107.41 45.8925 107.41 46.0223C107.41 46.1521 107.436 46.2807 107.485 46.4006C107.535 46.5205 107.608 46.6295 107.7 46.7212C107.792 46.8129 107.901 46.8856 108.021 46.9352C108.141 46.9847 108.27 47.0101 108.399 47.0099H154.959C155.221 47.0099 155.472 46.9059 155.657 46.7206C155.842 46.5354 155.946 46.2842 155.946 46.0223C155.946 45.7604 155.842 45.5092 155.657 45.3239C155.472 45.1387 155.221 45.0347 154.959 45.0347H108.399Z" fill="#E6E6E6"/>
<path d="M108.398 50.9602C108.136 50.9602 107.885 51.0643 107.699 51.2495C107.514 51.4347 107.41 51.6859 107.41 51.9478C107.41 52.2098 107.514 52.461 107.699 52.6462C107.885 52.8314 108.136 52.9355 108.398 52.9355H128.432C128.694 52.9355 128.946 52.8314 129.131 52.6462C129.316 52.461 129.42 52.2098 129.42 51.9478C129.42 51.6859 129.316 51.4347 129.131 51.2495C128.946 51.0643 128.694 50.9602 128.432 50.9602H108.398Z" fill="#E6E6E6"/>
<path d="M64.967 51.3594L50.4455 59.0797L50.2617 52.6462C55.0014 51.8549 59.5108 50.4773 63.6803 48.2346L65.1991 44.4823C65.3646 44.0735 65.6335 43.7147 65.9796 43.4411C66.3256 43.1676 66.7369 42.9888 67.1729 42.9222C67.6089 42.8556 68.0548 42.9036 68.4667 43.0613C68.8786 43.2191 69.2424 43.4813 69.5224 43.8221C69.932 44.3208 70.1368 44.9566 70.0952 45.6006C70.0536 46.2446 69.7688 46.8487 69.2984 47.2906L64.967 51.3594Z" fill="#FFB8B8"/>
<path d="M29.4833 95.9337C29.3774 95.5451 29.3549 95.1386 29.4173 94.7407C29.4797 94.3429 29.6257 93.9628 29.8455 93.6253L33.0355 88.7298C33.79 87.5719 34.9477 86.7355 36.284 86.3829C37.6203 86.0304 39.04 86.1868 40.2675 86.8218C38.9269 89.1038 39.1138 91.1057 40.7305 92.8455C38.2207 94.0707 35.901 95.6521 33.8434 97.5407C33.4677 97.7967 33.0363 97.9594 32.5851 98.015C32.1339 98.0706 31.6759 98.0176 31.2494 97.8603C30.8228 97.7031 30.44 97.4462 30.1328 97.1111C29.8256 96.776 29.6029 96.3723 29.4833 95.9337Z" fill="#2F2E41"/>
<path d="M65.6266 89.533C65.1439 90.3375 64.4625 91.0044 63.6478 91.4698C62.8331 91.9351 61.9125 92.1833 60.9743 92.1904L39.7824 92.3509L38.8633 87.0202L48.2379 84.263L40.3338 78.1971L48.9732 68.0872L64.6649 82.7125C65.5821 83.5673 66.178 84.7111 66.353 85.9525C66.5281 87.194 66.2716 88.4579 65.6266 89.533Z" fill="#2F2E41"/>
<path d="M36.4742 125.989H31.5112C27.0551 95.4446 22.5192 64.8144 35.9228 53.3818L51.731 55.9553L49.709 69.3739L40.8858 79.4838L36.4742 125.989Z" fill="#2F2E41"/>
<path d="M40.8342 132.909C40.4457 133.015 40.0391 133.037 39.6413 132.975C39.2434 132.912 38.8633 132.766 38.5259 132.547L33.137 131.822C31.9791 131.068 31.1426 129.91 30.79 128.574C30.4374 127.238 30.5937 125.818 31.2286 124.59C33.5107 125.931 35.5126 125.744 37.2523 124.127C38.4815 126.609 40.5067 126.457 42.4409 128.548C42.697 128.924 42.8597 129.355 42.9153 129.807C42.9709 130.258 42.9179 130.716 42.7607 131.142C42.6036 131.569 42.3467 131.952 42.0116 132.259C41.6765 132.566 41.2728 132.789 40.8342 132.909Z" fill="#2F2E41"/>
<path d="M48.2338 32.9783L39.043 30.7725C40.5694 27.6479 40.6951 24.1713 39.962 20.4787L46.2118 20.2949C46.4076 24.8867 47.0001 29.1765 48.2338 32.9783Z" fill="#FFB8B8"/>
<path d="M50.7653 61.4899C44.0747 66.049 39.3473 61.6459 35.7398 54.8524C36.2411 50.6954 35.4294 45.7207 33.9261 40.3153C33.2576 37.9311 33.5072 35.3829 34.6256 33.1738C35.7441 30.9647 37.6502 29.2552 39.9676 28.3828L47.8717 31.6915C54.5832 37.1622 55.9042 43.088 53.3862 49.3379L50.7653 61.4899Z" fill="#01589A"/>
<path d="M31.5092 37.5731L24.1565 41.4332L37.2075 49.1535L39.0235 53.6329C39.1447 53.9319 39.2037 54.2524 39.197 54.5749C39.1903 54.8975 39.118 55.2153 38.9844 55.5089C38.8509 55.8026 38.6589 56.066 38.4203 56.2831C38.1816 56.5001 37.9012 56.6663 37.5962 56.7715C37.2495 56.891 36.8799 56.9287 36.5162 56.8815C36.1525 56.8344 35.8047 56.7036 35.5 56.4996C35.1953 56.2956 34.9419 56.0238 34.7598 55.7055C34.5776 55.3872 34.4716 55.0311 34.4501 54.665L34.2665 51.5431L17.6788 46.0692C17.12 45.8848 16.6104 45.5756 16.1887 45.1651C15.767 44.7545 15.4443 44.2534 15.2449 43.6997C14.9543 42.8925 14.9395 42.0118 15.2028 41.1954C15.4662 40.3789 15.9927 39.6728 16.7001 39.1875L30.0387 30.0366L31.5092 37.5731Z" fill="#FFB8B8"/>
<path d="M38.8636 38.3088C35.7971 36.9649 33.0086 38.4248 29.4889 39.5955L28.9375 29.8532C32.4324 27.9905 35.7645 27.4883 38.8636 28.9341L38.8636 38.3088Z" fill="#01589A"/>
<path d="M42.532 25.1205C45.7728 25.1205 48.4 22.4933 48.4 19.2525C48.4 16.0117 45.7728 13.3845 42.532 13.3845C39.2912 13.3845 36.6641 16.0117 36.6641 19.2525C36.6641 22.4933 39.2912 25.1205 42.532 25.1205Z" fill="#FFB8B8"/>
<path d="M49.5506 18.5122C43.7408 19.0812 39.3137 18.1311 36.4844 15.4256V13.2468H49.0575L49.5506 18.5122Z" fill="#2F2E41"/>
</g>
<defs>
<clipPath id="clip0_4129_6265">
<rect width="195.5" height="136.02" fill="white"/>
</clipPath>
</defs>
</svg>
