<svg width="44" height="44" viewBox="0 0 44 44" fill="none" xmlns="http://www.w3.org/2000/svg">
<path d="M2.00391 21.998H30.0039M30.0039 21.998L23.0039 15.998M30.0039 21.998L23.0039 27.998" stroke="#01589A" stroke-width="4" stroke-linecap="round" stroke-linejoin="round"/>
<path d="M16.0039 12C16.0281 7.64994 16.221 5.29412 17.7578 3.75736C19.5152 2 22.3436 2 28.0004 2H30.0004C35.6572 2 38.4858 2 40.243 3.75736C42.0004 5.51472 42.0004 8.34314 42.0004 14V30C42.0004 35.6568 42.0004 38.4852 40.243 40.2426C38.7062 41.7794 36.3504 41.9724 32 41.9966M16.0039 32C16.0281 36.35 16.221 38.7058 17.7578 40.2426C19.0404 41.5252 20.8934 41.8718 24 41.9654" stroke="#01589A" stroke-width="4" stroke-linecap="round"/>
</svg>
