<svg width="84" height="59" viewBox="0 0 84 59" fill="none" xmlns="http://www.w3.org/2000/svg">
<path d="M82.9889 17.6904L45.8169 1.39441C44.6112 0.865508 43.3269 0.598633 42 0.598633C40.6731 0.598633 39.3891 0.865508 38.1831 1.39441L1.01112 17.6904C0.396703 17.9608 0 18.5504 0 19.1946C0 19.8388 0.396703 20.4283 1.01112 20.6988L38.1831 36.9947C39.3888 37.5236 40.6731 37.7918 42 37.7918C43.3269 37.7918 44.6112 37.5236 45.8172 36.9947L75.1536 24.1344V37.0846C73.9894 37.2096 73.0815 38.1533 73.0815 39.2936C73.0815 40.2872 73.7719 41.1474 74.7559 41.4214L72.772 53.8888H81.9064L79.9229 41.4214C80.9066 41.1474 81.597 40.2872 81.597 39.2936C81.597 38.1533 80.6891 37.2096 79.5249 37.0846V22.2177L82.9892 20.6988C83.6035 20.4283 84.0003 19.8388 84.0003 19.1946C84.0003 18.5504 83.6033 17.9608 82.9889 17.6904Z" fill="#4182B3"/>
<path d="M41.9988 43.6924C40.1538 43.6924 38.366 43.3188 36.6855 42.5824L18.5039 34.611V50.4919C18.5039 53.9785 29.566 58.4014 41.9988 58.4014C54.4318 58.4014 65.494 53.9783 65.494 50.4919V34.611L47.3115 42.5824C45.632 43.3188 43.8445 43.6924 41.9988 43.6924Z" fill="#4182B3"/>
</svg>
