<svg width="59" height="81" viewBox="0 0 59 81" fill="none" xmlns="http://www.w3.org/2000/svg">
<path d="M46.6942 59.604C42.5602 58.0853 38.9897 56.7739 38.6016 53.0375C38.422 51.315 38.5681 49.2903 39.0238 47.177C40.4525 45.6461 41.6362 43.437 42.8494 40.0378C45.2647 39.1073 46.8041 37.039 47.5539 33.7187C47.9384 32.0179 47.3886 30.2698 46.0453 28.9051C46.1661 26.8417 46.0602 26.7289 45.9825 26.6464L45.8978 26.5626H13.1716V28.8929C11.6252 30.3172 11.045 31.9403 11.4469 33.7187C12.1959 37.0378 13.7356 39.1062 16.1531 40.0378C17.3659 43.4368 18.5487 45.6448 19.9756 47.1745C20.2975 48.6617 20.6253 50.8636 20.3991 53.0375C20.0109 56.7739 16.4403 58.0853 12.3061 59.604C6.63109 61.6881 0.199219 64.0512 0.199219 73.4542C0.199219 76.3803 9.28969 80.5 29.5002 80.5C49.7106 80.5 58.8011 76.3803 58.8011 73.4542C58.8011 64.0514 52.3692 61.6882 46.6942 59.604ZM26.0483 76.2153L21.2222 56.6125L27.0769 59.0497L26.7172 62.2778L27.7441 62.2547L26.0483 76.2153ZM32.7972 62.2778L32.4375 59.0497L38.2922 56.6125L33.4661 76.2153L31.7702 62.2547L32.7972 62.2778Z" fill="#4182B3"/>
<path d="M3.73172 13.4342L12.3042 17.2045V22.8916H47.0948V17.2045L50.5941 15.6652V23.6705C49.8519 23.7881 49.2833 24.4092 49.2833 25.1541C49.2833 25.8019 49.7116 26.3634 50.3308 26.5686L49.3342 32.8525C49.2684 33.2686 49.3873 33.6895 49.6594 34.0075C49.9311 34.3266 50.3281 34.5097 50.7488 34.5097H53.3725C53.7931 34.5097 54.1902 34.3266 54.4613 34.0075C54.7339 33.6897 54.8528 33.2687 54.787 32.8525L53.7911 26.5686C54.4113 26.3636 54.8402 25.8019 54.8402 25.1541C54.8402 24.4092 54.2709 23.7881 53.5281 23.6705V14.3756L55.6666 13.4355C56.0878 13.2523 56.3602 12.8434 56.3602 12.3958C56.3602 11.9505 56.0884 11.543 55.6675 11.3573L32.1455 1.01313C31.373 0.672188 30.55 0.5 29.6989 0.5C28.848 0.5 28.0252 0.672188 27.2533 1.01313L3.73141 11.3573C3.31078 11.543 3.03906 11.9505 3.03906 12.3958C3.03891 12.8447 3.31125 13.2522 3.73172 13.4342Z" fill="#4182B3"/>
</svg>
