<svg width="22" height="18" viewBox="0 0 22 18" fill="none" xmlns="http://www.w3.org/2000/svg">
<path d="M8.90878 0.700618C10.1832 -0.116352 11.8168 -0.116352 13.0912 0.700618L21.1548 5.86959C21.3689 6.00687 21.4989 6.24336 21.5 6.49775C21.5011 6.75213 21.3732 6.98974 21.1602 7.1289L18 9.1935V14.7509C18 14.9132 17.9474 15.0711 17.85 15.2009L17.8489 15.2024L17.8477 15.204L17.8446 15.208L17.8364 15.2187C17.8321 15.2242 17.8269 15.2308 17.8209 15.2383C17.8179 15.2421 17.8146 15.2462 17.8111 15.2505C17.7904 15.2761 17.7619 15.3105 17.7253 15.3522C17.6522 15.4358 17.5469 15.5493 17.4081 15.6826C17.1305 15.9491 16.7176 16.2958 16.1587 16.6397C15.0359 17.3306 13.3387 18.0009 11 18.0009C8.66127 18.0009 6.96408 17.3306 5.8413 16.6397C5.2824 16.2958 4.86951 15.9491 4.59193 15.6826C4.45308 15.5493 4.34778 15.4358 4.27468 15.3522C4.23204 15.3035 4.1901 15.2541 4.15107 15.2024C4.14956 15.2004 4.15 15.2009 4.15 15.2009C4.05263 15.0711 4 14.9132 4 14.7509V9.1935L2 7.8869V13.2509C2 13.6652 1.66421 14.0009 1.25 14.0009C0.83579 14.0009 0.5 13.6652 0.5 13.2509V6.50095C0.5 6.23047 0.64318 5.99343 0.85788 5.8615L8.90878 0.700618ZM13.1194 12.3822C11.8317 13.2235 10.1683 13.2234 8.88058 12.3822L5.5 10.1735V14.4697C5.5368 14.5082 5.58034 14.5522 5.63073 14.6005C5.84143 14.8028 6.17072 15.0811 6.62745 15.3622C7.53592 15.9213 8.96373 16.5009 11 16.5009C13.0363 16.5009 14.4641 15.9213 15.3726 15.3622C15.8293 15.0811 16.1586 14.8028 16.3693 14.6005C16.4197 14.5522 16.4632 14.5082 16.5 14.4697V10.1735L13.1194 12.3822ZM12.2817 1.96343C11.5006 1.46271 10.4994 1.46271 9.7183 1.96343L2.63041 6.50698L9.701 11.1264C10.4902 11.642 11.5098 11.642 12.299 11.1264L19.3696 6.50698L12.2817 1.96343Z" fill="white"/>
</svg>
