<svg width="66" height="66" viewBox="0 0 66 66" fill="none" xmlns="http://www.w3.org/2000/svg">
<path d="M18.0412 5.375C15.3487 5.375 13.166 7.5577 13.166 10.25C13.166 12.9423 15.3487 15.125 18.0412 15.125C20.7338 15.125 22.9165 12.9423 22.9165 10.25C22.9165 7.5577 20.7338 5.375 18.0412 5.375ZM8.29102 10.25C8.29102 4.86514 12.6564 0.5 18.0412 0.5C23.4261 0.5 27.7913 4.86514 27.7913 10.25C27.7913 15.6349 23.4261 20 18.0412 20C12.6564 20 8.29102 15.6349 8.29102 10.25ZM5.9115 23.25C2.73836 23.25 0.166016 25.8223 0.166016 28.9954V30.1634C0.165983 30.8404 0.165821 34.742 2.44381 38.5338C4.22094 41.4916 7.23984 44.1478 12.1106 45.3383C12.7796 43.5537 13.9992 42.0386 15.5626 40.9989C10.3501 40.4412 7.88688 38.1272 6.62263 36.0231C5.04947 33.4046 5.04102 30.6174 5.04102 30.1562V28.9954C5.04102 28.5147 5.43076 28.125 5.9115 28.125H19.7666C19.9858 26.3668 20.5562 24.7177 21.4052 23.25H5.9115ZM43.9273 23.25C44.7765 24.7177 45.3465 26.3668 45.5659 28.125H59.4207C59.9013 28.125 60.291 28.5147 60.291 28.9954V30.1562C60.291 30.6174 60.2826 33.4046 58.7096 36.0231C57.4453 38.1272 54.9818 40.4412 49.7695 40.9989C51.3327 42.0386 52.5524 43.5537 53.2213 45.3383C58.0921 44.1478 61.111 41.4916 62.8881 38.5338C65.1663 34.742 65.166 30.8404 65.166 30.1634V28.9954C65.166 25.8223 62.5936 23.25 59.4207 23.25H43.9273ZM42.416 10.25C42.416 7.5577 44.5987 5.375 47.2913 5.375C49.984 5.375 52.1663 7.5577 52.1663 10.25C52.1663 12.9423 49.984 15.125 47.2913 15.125C44.5987 15.125 42.416 12.9423 42.416 10.25ZM47.2913 0.5C41.9064 0.5 37.541 4.86514 37.541 10.25C37.541 15.6349 41.9064 20 47.2913 20C52.6759 20 57.0413 15.6349 57.0413 10.25C57.0413 4.86514 52.6759 0.5 47.2913 0.5ZM32.6663 24.875C29.9737 24.875 27.791 27.0577 27.791 29.75C27.791 32.4423 29.9737 34.625 32.6663 34.625C35.359 34.625 37.5413 32.4423 37.5413 29.75C37.5413 27.0577 35.359 24.875 32.6663 24.875ZM22.916 29.75C22.916 24.3651 27.2814 20 32.6663 20C38.0509 20 42.4163 24.3651 42.4163 29.75C42.4163 35.1349 38.0509 39.5 32.6663 39.5C27.2814 39.5 22.916 35.1349 22.916 29.75ZM14.791 48.4953C14.791 45.3224 17.3634 42.75 20.5365 42.75H44.7957C47.9686 42.75 50.541 45.3224 50.541 48.4953V49.6634C50.541 50.3404 50.5413 54.242 48.2631 58.0338C45.8539 62.0443 41.1615 65.5 32.666 65.5C24.1704 65.5 19.4783 62.0443 17.0688 58.0338C14.7908 54.242 14.791 50.3404 14.791 49.6634V48.4953ZM20.5365 47.625C20.0558 47.625 19.666 48.0147 19.666 48.4953V49.6562C19.666 50.1174 19.6745 52.9046 21.2476 55.5232C22.6975 57.9363 25.7241 60.625 32.666 60.625C39.608 60.625 42.6344 57.9363 44.0846 55.5232C45.6576 52.9046 45.666 50.1174 45.666 49.6562V48.4953C45.666 48.0147 45.2763 47.625 44.7957 47.625H20.5365Z" fill="#12B76A"/>
</svg>
